<svg width="254" height="41" viewBox="0 0 254 41" fill="none" xmlns="http://www.w3.org/2000/svg">
<path d="M27.8535 7.83098L31.646 4.95334C28.3128 2.19587 24.0609 0.5 19.4252 0.5V0.540158C14.4263 0.550457 9.8627 2.51193 6.41509 5.7211L6.39746 5.70114C2.46643 9.35204 0.0195319 14.6059 0.000116406 20.4499C3.96406e-05 20.46 0 20.47 0 20.4799C0 20.4866 3.1898e-06 20.4932 9.56791e-06 20.4999C3.19135e-06 20.5066 0 20.5133 0 20.52C0.00986716 25.6634 1.91793 30.358 5.03779 33.9026L5.01916 33.92C8.56436 37.9593 13.6655 40.4748 19.3399 40.4997C19.3553 40.4999 19.3706 40.5 19.3858 40.5C24.4097 40.5 28.999 38.5292 32.4556 35.3007L32.4892 35.3388C36.3999 31.7133 38.89 26.392 38.89 20.5199C38.89 19.2981 38.7751 18.1163 38.5816 16.9345L34.4052 20.126V20.5199C34.4052 24.7808 32.7127 28.6229 29.9978 31.3922L29.9629 31.3563C27.2793 34.1939 23.5622 35.8898 19.4252 35.8898C19.295 35.8898 19.165 35.8879 19.0357 35.8845C18.9129 35.8794 18.79 35.8694 18.6575 35.8497L18.6565 35.8696C14.8311 35.6694 11.3957 33.9831 8.87256 31.3716L8.88756 31.3562C6.16782 28.5987 4.48152 24.7764 4.48151 20.52C4.48151 20.3885 4.48315 20.2573 4.48641 20.1265C4.49133 19.9986 4.50117 19.8708 4.52087 19.7321L4.50125 19.7311C4.69696 15.826 6.3359 12.2685 8.8725 9.66825L8.88763 9.68381C11.5713 6.88629 15.3245 5.15036 19.4254 5.15036C19.6944 5.15036 19.9241 5.15036 20.1931 5.19042L20.1957 5.13916C23.0431 5.31707 25.6735 6.27456 27.8535 7.83098Z" fill="#213B48"/>
<path d="M67.662 27.3368C66.3235 28.0879 64.8274 28.4818 63.2953 28.4818C58.7351 28.4818 55.4412 25.1302 55.4412 20.5199C55.4412 15.9097 58.7351 12.558 63.2953 12.558C64.9423 12.5213 66.5531 13.0721 67.8917 14.0569L71.5333 11.2994L71.3036 11.0624C69.1974 9.12952 66.3596 8.14471 63.1411 8.14471C59.657 8.14471 56.4746 9.36654 54.1781 11.5732C51.8783 13.8599 50.5759 17.0514 50.6513 20.363C50.6119 23.7114 51.8783 26.9429 54.1781 29.3064C56.5895 31.6332 59.8079 32.9352 63.105 32.8551C66.7434 32.8551 69.9224 31.5531 72.0681 29.1896L68.8136 26.7058L67.662 27.3368Z" fill="#213B48"/>
<path fill-rule="evenodd" clip-rule="evenodd" d="M87.511 17.8392H81.3793V12.4812H91.1887L96.4773 8.46187H76.3236V32.5413H86.8581C92.7602 32.5413 96.1689 29.7805 96.1689 24.9733C96.1689 20.363 93.1047 17.8392 87.511 17.8392ZM86.6678 28.5186H81.3793V21.8586H86.6678C89.8862 21.8586 91.379 22.9636 91.379 25.2103C91.379 27.457 89.7714 28.5186 86.6678 28.5186Z" fill="#213B48"/>
<path d="M113.297 12.4812L118.582 8.46187H100.883V32.5413H118.582V28.5186H105.938V22.3727H116.745V18.3533H105.938V12.4812H113.297Z" fill="#213B48"/>
<path fill-rule="evenodd" clip-rule="evenodd" d="M123.297 8.46187H132.913C139.081 8.46187 142.912 11.7702 142.912 17.0915C142.912 22.4128 139.081 25.7211 132.952 25.7211H128.352V32.5413H123.297V8.46187ZM128.316 21.7017H132.798C136.056 21.7017 137.817 20.0459 137.817 17.0915C137.817 14.137 136.056 12.4812 132.798 12.4812H128.316V21.7017Z" fill="#213B48"/>
<path d="M203.719 32.578V8.50193H208.774V18.3934H219.542V8.50193H224.601V32.578H219.542V22.7266H208.774V32.578H203.719Z" fill="#213B48"/>
<path fill-rule="evenodd" clip-rule="evenodd" d="M200.346 32.578H195.021L193.105 27.7307H182.377L180.346 32.578H175.251L185.327 8.50193H190.461L200.346 32.578ZM187.817 14.0569L183.909 23.7114H191.494L187.817 14.0569Z" fill="#213B48"/>
<path d="M239.082 22.8467H235.942V32.5413H230.883V8.46187H235.942V18.7873H238.737L246.247 8.46187H252.031L242.989 20.0859L253.333 32.5413H246.821L239.082 22.8467Z" fill="#213B48"/>
<path fill-rule="evenodd" clip-rule="evenodd" d="M158.546 12.5213V17.8793H164.674C170.271 17.8793 173.335 20.4031 173.335 25.0133C173.335 29.8205 169.923 32.578 164.025 32.578H153.487V8.50193H171.764V12.5213H158.546ZM158.546 21.8987V28.5987H163.834C166.974 28.5987 168.546 27.497 168.546 25.2503C168.546 23.0036 167.05 21.8987 163.834 21.8987H158.546Z" fill="#213B48"/>
<path d="M34.8286 8.30497C35.7472 9.5268 36.5149 10.8655 37.1645 12.2843L19.4648 25.7211L12.0306 20.9139V15.1619L19.4254 19.929L34.8286 8.30497Z" fill="#213B48"/>
</svg>
