<svg width="200" height="41" viewBox="0 0 200 41" fill="none" xmlns="http://www.w3.org/2000/svg">
<path d="M0.333008 35.0476H26.6177V40.5H0.333008V35.0476ZM190.417 17.5446L198.705 8.40108H192.528L185.737 16.0006V8.40108H180.816V27.617H185.761V19.5229L193.023 27.617H199.368L190.417 17.5446ZM29.5127 18.8112C29.3801 22.43 28.9217 23.1176 26.9193 23.1176V27.6291H27.6671C32.6973 27.6291 33.8915 25.0356 34.0725 19.2575L34.2896 12.8643H38.9337V27.617H43.8553V8.40108H29.8505L29.5127 18.8112ZM8.14965 22.1164H18.5236L20.2486 27.617H26.0025L18.2462 4.50482C17.4983 2.27322 16.6297 0.5 13.6623 0.5C10.6949 0.5 9.79018 2.27322 8.99405 4.50482L0.863768 27.617H6.26787L8.14965 22.1164ZM13.409 6.53136H13.5417L17.0158 17.4843H9.70575L13.409 6.53136ZM128.379 11.1273H122.89V5.69903H135.629V0.873945H117.727V27.617H128.379C134.278 27.617 137.667 24.6737 137.667 19.2937C137.667 14.1912 134.229 11.1273 128.379 11.1273ZM128.126 22.7799H122.89V15.8317H128.126C130.852 15.8317 132.384 17.038 132.384 19.3058C132.384 21.5736 130.852 22.7799 128.126 22.7799ZM79.4524 7.95476V0.837756H74.5429V7.95476C71.965 8.03981 69.5261 9.14451 67.762 11.0262C65.9979 12.908 65.0527 15.4129 65.134 17.991C65.0462 20.5743 65.988 23.0867 67.7525 24.9756C69.517 26.8647 71.9595 27.9753 74.5429 28.0633V35.301H79.4645V28.0633C80.7441 28.0212 82.003 27.7273 83.1687 27.1979C84.3346 26.6688 85.3845 25.9147 86.2586 24.9791C87.1325 24.0434 87.8133 22.9446 88.2621 21.7455C88.7108 20.5463 88.9185 19.2704 88.8734 17.991C88.925 16.7106 88.7211 15.4328 88.2737 14.2322C87.8261 13.0315 87.144 11.932 86.267 10.9977C85.3901 10.0636 84.3358 9.31327 83.1658 8.79083C81.9957 8.2684 80.7335 7.9842 79.4524 7.95476ZM74.555 23.4192C73.2524 23.2761 72.0583 22.6268 71.2302 21.6113C70.402 20.5959 70.0061 19.2957 70.1279 17.991C70.0218 16.6895 70.4234 15.3975 71.2487 14.3856C72.0739 13.3737 73.2588 12.7205 74.555 12.5627V23.4192ZM79.4766 23.4192V12.5627C80.7727 12.7205 81.9576 13.3737 82.7828 14.3856C83.6082 15.3975 84.0097 16.6895 83.9036 17.991C84.019 19.2943 83.6208 20.5912 82.7938 21.6053C81.9669 22.6193 80.7766 23.2702 79.4766 23.4192ZM107.317 21.7183V15.2407C107.317 10.5121 104.314 7.55669 99.2715 7.55669C94.2293 7.55669 91.286 10.693 91.0447 13.962H96.0266C96.1955 13.2624 96.9434 12.0199 99.2594 12.0199C99.6925 11.9642 100.132 12.0098 100.543 12.1533C100.955 12.2969 101.328 12.5341 101.632 12.8467C101.936 13.1591 102.164 13.5381 102.297 13.9536C102.43 14.3691 102.463 14.8098 102.396 15.2407H97.5706C93.2039 15.2407 90.6104 17.5446 90.6104 21.3565C90.5764 22.2661 90.7337 23.1727 91.0722 24.0177C91.4108 24.8627 91.923 25.6271 92.5757 26.2616C93.2283 26.8961 94.007 27.3865 94.8612 27.7011C95.7154 28.0156 96.6261 28.1472 97.5345 28.0875C98.5599 28.1414 99.5827 27.9417 100.513 27.5063C101.443 27.0707 102.251 26.4128 102.866 25.5905C103.267 26.2678 103.851 26.8176 104.551 27.1762C105.251 27.535 106.039 27.6878 106.823 27.617H108.524V23.1779C107.691 23.1779 107.317 22.7799 107.317 21.7183ZM102.396 20.5121C102.416 20.9872 102.335 21.4613 102.158 21.9029C101.982 22.3445 101.714 22.7438 101.373 23.0743C101.03 23.4048 100.623 23.6591 100.175 23.8205C99.7275 23.9818 99.251 24.0464 98.7769 24.0103C97.0037 24.0103 95.6044 23.3709 95.6044 21.453C95.6044 19.535 97.1605 19.2575 98.4753 19.2575H102.396V20.5121ZM56.111 14.2394H52.5767V8.40108H47.6551V27.617H56.1955C61.5393 27.617 63.4331 24.1429 63.4331 20.8619C63.4572 16.6279 60.8035 14.2394 56.111 14.2394ZM55.7492 23.4192H52.5767V18.5941H55.7492C57.45 18.5941 58.4753 19.3661 58.4753 21.0066C58.4753 22.6472 57.4983 23.4192 55.7492 23.4192ZM156.449 21.7183V15.2407C156.449 10.5121 153.445 7.55669 148.403 7.55669C143.361 7.55669 140.417 10.693 140.176 13.962H145.158C145.327 13.2624 146.075 12.0199 148.391 12.0199C148.824 11.9642 149.263 12.0098 149.674 12.1533C150.087 12.2969 150.46 12.5341 150.764 12.8467C151.068 13.1591 151.296 13.5381 151.428 13.9536C151.561 14.3691 151.595 14.8098 151.527 15.2407H146.702C142.335 15.2407 139.742 17.5446 139.742 21.3565C139.708 22.2661 139.865 23.1727 140.204 24.0177C140.542 24.8627 141.054 25.6271 141.707 26.2616C142.36 26.8961 143.139 27.3865 143.993 27.7011C144.847 28.0156 145.758 28.1472 146.666 28.0875C147.701 28.1515 148.736 27.9568 149.678 27.521C150.619 27.085 151.437 26.4216 152.058 25.5905C152.452 26.256 153.025 26.7982 153.712 27.1562C154.398 27.5142 155.17 27.6738 155.942 27.617H157.643V23.1779C156.787 23.1779 156.449 22.7799 156.449 21.7183ZM151.551 20.5121C151.569 20.9867 151.487 21.4598 151.31 21.9006C151.133 22.3414 150.865 22.7398 150.524 23.07C150.182 23.4 149.775 23.6544 149.328 23.8165C148.882 23.9785 148.407 24.0445 147.933 24.0103C146.159 24.0103 144.76 23.3709 144.76 21.453C144.76 19.535 146.316 19.2575 147.631 19.2575H151.551V20.5121ZM172.167 15.5543H165.375V8.40108H160.454V27.6291H165.375V20.0537H172.167V27.617H177.088V8.40108H172.167V15.5543Z" fill="#213B48"/>
</svg>
