<svg width="113" height="41" viewBox="0 0 113 41" fill="none" xmlns="http://www.w3.org/2000/svg">
<path d="M7.74845 0.5L5.80937 5.81896H32.6713L34.6104 0.5H7.74845ZM4.84095 8.47618L2.90187 13.794H29.7638L31.7029 8.47618H4.84095ZM1.93909 16.4524L0 21.7691H26.862L28.7988 16.4512C28.7999 16.4524 1.93909 16.4524 1.93909 16.4524Z" fill="#213B48"/>
<path d="M56.4718 23.4382V23.5487C57.6781 23.9917 58.8314 24.7674 59.4345 25.2657C61.2992 26.8169 62.1233 28.8654 62.1233 31.5237C62.1233 35.9013 59.819 39.0568 56.0321 40.0546C54.8788 40.3871 53.6725 40.4976 51.4234 40.4976H39.958V8.48242H50.1089C52.1945 8.48242 53.6195 8.5929 54.8811 8.92435C58.5574 9.92208 60.9723 12.4699 60.9723 16.5127C60.9723 18.6739 60.2045 20.5025 58.943 21.7201C58.394 22.2736 57.6262 22.9388 56.4741 23.4371L56.4718 23.4382ZM46.322 26.8169V35.2362H50.712C52.0277 35.2362 53.2362 35.1257 54.1133 34.2948C54.9916 33.4639 55.3749 32.411 55.3749 31.0266C55.3749 29.9758 55.0998 28.9781 54.5519 28.2577C53.6195 27.0943 52.4662 26.8169 50.4922 26.8169H46.3209H46.322ZM46.2657 21.277H49.8327C50.9296 21.277 51.4787 21.277 52.0266 21.1113C53.5091 20.6671 54.4414 19.3402 54.4414 17.5116C54.4414 15.3515 53.4538 14.409 52.0266 13.9671C51.4223 13.8003 50.8203 13.7461 49.6129 13.7461H46.2657V21.2781V21.277ZM71.67 40.4988V13.8555H62.5078V8.48355H87.9673L86.1567 13.8555H78.0351V40.4988H71.67ZM89.9424 40.4988V8.48355H110.573L108.763 13.8555H96.2535V20.9467H101.357C105.472 20.9467 107.612 21.9444 109.094 23.2172C110.248 24.2149 112.222 26.4291 112.222 30.8067C112.222 35.1268 110.192 37.5078 108.49 38.7277C106.515 40.1109 104.43 40.4999 100.204 40.4999H89.9436H89.9424V40.4988ZM96.2524 35.1246H101.026C102.836 35.1246 103.933 34.6815 104.701 33.6838C105.084 33.1866 105.633 32.2982 105.633 30.6376C105.633 28.977 105.084 27.8124 103.987 26.9815C103.33 26.4844 102.451 26.2081 100.969 26.2081H96.2501V35.1246H96.2524Z" fill="#213B48"/>
</svg>
