<svg width="173" height="38" viewBox="0 0 173 38" fill="none" xmlns="http://www.w3.org/2000/svg">
<path fill-rule="evenodd" clip-rule="evenodd" d="M93.2376 12.1459L75.7299 0.328125V6.70381L81.189 10.4016L82.263 11.0281C80.3018 11.0517 79.3625 11.4501 78.419 12.0198C75.7233 13.6449 74.324 16.5031 74.324 20.7206C74.324 27.8273 78.2467 31.1921 85.7192 31.1921C93.1922 31.1921 97.1344 27.8273 97.1344 20.7206C97.1344 16.6075 95.8004 13.795 93.2376 12.1459ZM85.7192 25.9956C82.0147 25.9956 80.8488 24.647 80.8488 20.7752C80.8488 16.9034 82.006 15.5547 85.7192 15.5547C89.4329 15.5547 90.5703 16.8771 90.5703 20.7752C90.5703 24.6729 89.4524 25.9956 85.7192 25.9956ZM31.3413 20.7752C31.3413 24.6536 32.4984 25.9956 36.2117 25.9956C39.9249 25.9956 41.0628 24.647 41.0628 20.7752C41.0628 16.9034 39.9424 15.5547 36.2117 15.5547C32.4807 15.5547 31.3413 16.8771 31.3413 20.7752ZM24.8165 20.7187C24.8165 13.6121 28.7655 10.3602 36.2117 10.3602C43.6581 10.3602 47.6243 13.6121 47.6243 20.7187C47.6243 27.825 43.7016 31.1901 36.2117 31.1901C28.7218 31.1901 24.8165 27.825 24.8165 20.7187ZM6.47824 13.4098C7.18871 12.509 10.0546 10.3339 13.5804 10.3339C19.4489 10.3339 22.6851 13.4968 22.6851 20.6816C22.6851 27.866 19.4446 31.0594 13.5607 31.0594C10.0149 31.0594 7.16899 28.9234 6.43918 28.0033V37.5001H0.22168V10.7996H6.47824V13.4098ZM6.48269 20.6661C6.48269 24.5402 7.64857 25.8865 11.3531 25.8865V25.878C15.0838 25.878 16.2019 24.5596 16.2019 20.6661C16.2019 16.7726 15.0664 15.4457 11.3531 15.4457C7.63986 15.4457 6.48269 16.792 6.48269 20.6661ZM139.917 10.8081V18.0582H131.662V10.8081H125.405V30.4286H131.662V23.0783H139.917V30.4286H146.176V10.8081H139.917ZM108.412 31.0594C102.524 31.0594 99.2872 27.8594 99.2872 20.6816C99.2872 13.5161 102.521 10.3339 108.39 10.3339C111.914 10.3339 114.78 12.509 115.494 13.3966V10.7864H121.751V30.4305H115.531V28.0033C114.801 28.9234 111.955 31.0594 108.412 31.0594ZM110.619 15.4325C106.886 15.4325 105.768 16.7552 105.768 20.653C105.766 24.5314 106.908 25.8738 110.619 25.8738C114.331 25.8738 115.488 24.5468 115.488 20.653C115.488 16.7595 114.353 15.4325 110.619 15.4325ZM65.7794 23.1785C65.2912 25.2298 63.9837 25.9952 61.1505 25.9952C57.446 25.9952 56.282 24.6466 56.282 20.7748C56.282 16.903 57.446 15.5543 61.1505 15.5543C63.9837 15.5543 65.2912 16.3178 65.7814 18.3823L72.3061 17.8884C71.3319 12.755 67.5117 10.3687 61.1505 10.3687C53.7041 10.3687 49.7577 13.6206 49.7577 20.7272C49.7577 27.8335 53.6799 31.1986 61.1505 31.1986C67.5073 31.1986 71.2884 28.7625 72.2864 23.6789L65.7794 23.1785ZM162.755 20.1246L172.658 30.4263H164.614L155.989 21.3928V21.867V23.5656V30.4263H149.843V10.8081H155.989V19.3306L164.385 10.8081H172.126L162.755 20.1246Z" fill="#213B48"/>
</svg>
