<svg width="50" height="51" viewBox="0 0 50 51" fill="none" xmlns="http://www.w3.org/2000/svg">
<circle cx="25" cy="25.5" r="24.4" fill="white" fill-opacity="0.1" stroke="#F5F5F5" stroke-width="1.2"/>
<path d="M25.3372 23C19.6384 23 15 26.5913 15 31.003C15 32.6936 15.6703 34.3076 16.9341 35.6714C17.3075 36.0749 17.9444 36.0982 18.3479 35.7248C18.7514 35.3513 18.7781 34.7144 18.4013 34.3109C17.4843 33.3239 17.0008 32.1768 17.0008 31.003C17.0008 27.6918 20.7388 25.0008 25.3372 25.0008C29.9356 25.0008 33.6737 27.6918 33.6737 31.003C33.6737 34.3142 29.9356 37.0053 25.3372 37.0053C25.3139 37.0053 25.2872 37.0053 25.2605 37.0053H25.2238L24.4302 36.9952L26.7111 34.7144C27.1012 34.3242 27.1012 33.6907 26.7111 33.3005C26.5177 33.1071 26.2609 33.0071 26.0041 33.0071C25.7474 33.0071 25.4906 33.1038 25.2972 33.3005L23.003 35.5947C22.3594 36.2383 22.0026 37.0986 22.0026 38.009C22.0026 38.9193 22.3594 39.7796 23.003 40.4232L25.2972 42.7174C25.674 43.0942 26.3343 43.0942 26.7111 42.7174C27.0879 42.3406 27.1012 41.6937 26.7111 41.3035L24.4069 38.9993L25.3339 39.0093C31.0327 39.0093 35.6711 35.418 35.6711 31.0063C35.6711 26.5947 31.0327 23.0033 25.3339 23.0033L25.3372 23Z" fill="#F5F5F5" stroke="#F5F5F5" stroke-width="0.3"/>
<path d="M18.0426 14.536C18.5586 14.968 18.8106 15.616 18.8106 16.42C18.8106 18.244 17.4426 19.144 15.7266 19.144C14.0946 19.144 12.8826 18.34 12.7146 16.6L13.9626 16.504C14.0826 17.62 14.7666 18.088 15.7266 18.088C16.7826 18.088 17.5146 17.5 17.5146 16.42C17.5146 15.484 16.9626 14.812 15.7626 14.812C15.4626 14.812 15.0546 14.848 14.5266 14.956V14.056L16.9146 11.656H13.1226V10.6H18.5826V11.548L16.0026 13.936C16.7826 13.948 17.5266 14.116 18.0426 14.536ZM23.3289 13.528C24.8769 13.528 26.0649 14.536 26.0649 16.312C26.0649 18.088 24.8649 19.144 23.0169 19.144C20.9169 19.144 19.7889 17.824 19.7889 14.956C19.7889 11.956 21.0009 10.456 23.0409 10.456C24.6129 10.456 25.6209 11.344 25.7649 12.796L24.5169 12.88C24.4329 12.1 23.9169 11.5 23.0409 11.5C22.3089 11.5 21.7569 11.92 21.4209 12.724C21.2049 13.264 21.0969 13.876 21.0849 14.776C21.5169 13.96 22.3569 13.528 23.3289 13.528ZM23.0169 18.1C24.0729 18.1 24.7569 17.392 24.7569 16.312C24.7569 15.232 24.0729 14.536 23.0169 14.536C21.9609 14.536 21.2769 15.232 21.2769 16.312C21.2769 17.392 21.9609 18.1 23.0169 18.1ZM27.0897 14.8C27.0897 12.112 28.2177 10.456 30.2697 10.456C32.3337 10.456 33.4617 12.112 33.4617 14.8C33.4617 17.488 32.3337 19.144 30.2697 19.144C28.2177 19.144 27.0897 17.488 27.0897 14.8ZM28.3857 14.8C28.3857 16.888 29.0937 18.088 30.2697 18.088C31.4577 18.088 32.1657 16.888 32.1657 14.8C32.1657 12.712 31.4577 11.512 30.2697 11.512C29.0937 11.512 28.3857 12.712 28.3857 14.8ZM36.2811 14.368C35.2131 14.368 34.3611 13.624 34.3611 12.412C34.3611 11.2 35.2131 10.456 36.2811 10.456C37.3491 10.456 38.2131 11.2 38.2131 12.412C38.2131 13.624 37.3491 14.368 36.2811 14.368ZM36.2811 13.564C36.9051 13.564 37.3731 13.084 37.3731 12.412C37.3731 11.728 36.9051 11.26 36.2811 11.26C35.6571 11.26 35.2011 11.728 35.2011 12.412C35.2011 13.084 35.6571 13.564 36.2811 13.564Z" fill="#F5F5F5"/>
</svg>
