<svg width="24" height="24" viewBox="0 0 24 24" fill="none" xmlns="http://www.w3.org/2000/svg">
<g clip-path="url(#clip0_10210_1439)">
<path d="M14.1094 0.86676C13.5353 0.312554 12.766 0.00683332 11.968 0.0158176C11.1701 0.0248018 10.4079 0.347768 9.84639 0.914761L0.0253906 11.9998L9.89139 23.1328C10.1687 23.4088 10.4977 23.6274 10.8596 23.7762C11.2215 23.925 11.6091 24.0009 12.0004 23.9998C12.4026 23.9989 12.8005 23.9174 13.1707 23.7601C13.5408 23.6027 13.8757 23.3728 14.1554 23.0838L23.9604 11.9998L14.1094 0.86676ZM20.7384 11.3758L13.0004 13.6618V2.62776L20.7384 11.3758ZM11.0004 2.62376V13.6618L3.25339 11.3728L11.0004 2.62376ZM4.25039 13.7528L11.0004 15.7468V21.3728L4.25039 13.7528ZM13.0004 21.3748V15.7468L19.7364 13.7568L13.0004 21.3748Z" fill="#BDBDBD"/>
</g>
<defs>
<clipPath id="clip0_10210_1439">
<rect width="24" height="24" fill="white"/>
</clipPath>
</defs>
</svg>
