<svg width="285" height="60" viewBox="0 0 285 60" fill="none" xmlns="http://www.w3.org/2000/svg">
<path fill-rule="evenodd" clip-rule="evenodd" d="M0 42.3577H23.3334V56.4801H3.3388V60H0V42.3577ZM3.3388 52.9459H19.9992V45.8919H3.3388V52.9459Z" fill="#213B48"/>
<path fill-rule="evenodd" clip-rule="evenodd" d="M13.3216 31.7742H0V8.8283L8.33255 0H13.3216V31.7742ZM10.0071 3.53414L3.3388 10.5978V28.24H10.0071V3.53414Z" fill="#213B48"/>
<path fill-rule="evenodd" clip-rule="evenodd" d="M29.9872 31.7742H16.6702V0H29.9872V31.7742ZM26.682 3.53414H19.9992V28.24H26.682V3.53414Z" fill="#213B48"/>
<path d="M56.6641 31.7742H53.3253V3.53414L46.6714 10.5978V31.7742H43.3326V3.53414L36.6602 10.5978V31.7742H33.326V8.8283L41.6632 0H46.6668V5.30837L51.6605 0.0238707V0H56.6641V31.7742Z" fill="#213B48"/>
<path d="M56.6641 38.8282H0V35.3036H56.6641V38.8282Z" fill="#213B48"/>
<path fill-rule="evenodd" clip-rule="evenodd" d="M56.6687 56.4801H43.328V60H39.9938V56.4801H26.682V42.3577H56.6687V56.4801ZM53.3253 45.8919H43.3326V52.9459H53.3253V45.8919ZM29.9872 52.9459H39.9938V45.8919H29.9872V52.9459Z" fill="#213B48"/>
<path fill-rule="evenodd" clip-rule="evenodd" d="M106.25 25.2163V28.4213H109.322C112.327 28.4213 114.182 30.4769 114.182 33.3768C114.182 36.2719 112.346 38.3275 109.322 38.3275H103.341V22.4499H113.238V25.2163H106.25ZM109.179 31.1875H106.25V35.5612H109.179C110.481 35.5612 111.253 34.6979 111.253 33.3768C111.253 32.0843 110.481 31.1875 109.179 31.1875Z" fill="#213B48"/>
<path fill-rule="evenodd" clip-rule="evenodd" d="M129.708 38.3275H126.669L125.777 35.5183H120.469L119.567 38.3275H116.515L121.952 22.4499H124.251L129.708 38.3275ZM121.298 32.9141H125.019L123.192 27.1383L121.298 32.9141Z" fill="#213B48"/>
<path d="M143.678 38.3275H140.768V31.6836H135.694V38.3322H132.77V22.4547H135.694V28.9316H140.768V22.4547H143.678V38.3275Z" fill="#213B48"/>
<path d="M159.489 22.4547L154.477 29.895L160 38.3322H156.427L151.176 30.0334V38.3322H148.257V22.4547H151.176V29.9857L156.012 22.4547H159.489Z" fill="#213B48"/>
<path d="M79.9928 0H83.3269V59.9905H79.9928V0Z" fill="#213B48"/>
</svg>
