<svg width="30" height="30" viewBox="0 0 30 30" fill="none" xmlns="http://www.w3.org/2000/svg">
<g clip-path="url(#clip0_10210_756)">
<path d="M29.3688 19.8412L29.9725 15H2.5V5.41625C2.5 3.80875 3.80875 2.5 5.41625 2.5C6.32875 2.5 7.2025 2.93625 7.75 3.66625L8.07375 4.0975L7.35625 8.21L8.695 10.2975L15.9163 4.88125L14.5775 2.79375L10.0688 2.5925L9.74875 2.165C8.73125 0.80875 7.11125 0 5.415 0C2.42875 0 0 2.42875 0 5.41625V15L0.64875 19.8412C0.96875 22.4013 2.22875 24.6425 4.05625 26.2375L3.12625 30H5.7025L6.2675 27.71C7.62375 28.3762 9.14375 28.75 10.74 28.75H19.2788C20.87 28.75 22.385 28.38 23.7375 27.7175L24.3013 30H26.8775L25.95 26.2488C27.7838 24.6538 29.05 22.4075 29.3713 19.8412H29.3688ZM10.7387 26.25C6.87875 26.25 3.6075 23.3612 3.12875 19.5312L2.875 17.5H27.1412L26.8888 19.5312C26.4088 23.3612 23.1375 26.25 19.2775 26.25H10.7387Z" fill="#FED269"/>
</g>
<defs>
<clipPath id="clip0_10210_756">
<rect width="30" height="30" fill="white"/>
</clipPath>
</defs>
</svg>
