<svg width="24" height="24" viewBox="0 0 24 24" fill="none" xmlns="http://www.w3.org/2000/svg">
<g clip-path="url(#clip0_5406_3183)">
<path d="M1 24H23V3C23 2.20435 22.6839 1.44129 22.1213 0.87868C21.5587 0.31607 20.7956 0 20 0L4 0C3.20435 0 2.44129 0.31607 1.87868 0.87868C1.31607 1.44129 1 2.20435 1 3V24ZM3 3C3 2.73478 3.10536 2.48043 3.29289 2.29289C3.48043 2.10536 3.73478 2 4 2H20C20.2652 2 20.5196 2.10536 20.7071 2.29289C20.8946 2.48043 21 2.73478 21 3V22H3V3ZM5 10H19V4H5V10ZM7 6H17V8H7V6ZM5 13H7V15H5V13ZM9 13H11V15H9V13ZM15 13V15H13V13H15ZM5 17H7V19H5V17ZM9 17H11V19H9V17ZM17 13H19V15H17V13ZM13 17H19V19H13V17Z" fill="#BDBDBD"/>
</g>
<defs>
<clipPath id="clip0_5406_3183">
<rect width="24" height="24" fill="white"/>
</clipPath>
</defs>
</svg>
