<svg width="20" height="21" viewBox="0 0 20 21" fill="none" xmlns="http://www.w3.org/2000/svg">
<path d="M12.8733 6.82694L14.6267 8.60944L10.2158 12.9486C9.815 13.3503 9.28417 13.5519 8.7525 13.5519C8.22083 13.5519 7.68417 13.3486 7.27667 12.9419L4.96333 10.7003L6.70333 8.90527L8.7475 10.8869L12.8733 6.82861V6.82694ZM20 10.2178C20 15.7319 15.5142 20.2178 10 20.2178C4.48583 20.2178 0 15.7319 0 10.2178C0 4.70361 4.48583 0.217773 10 0.217773C15.5142 0.217773 20 4.70361 20 10.2178ZM17.5 10.2178C17.5 6.08277 14.1358 2.71777 10 2.71777C5.86417 2.71777 2.5 6.08277 2.5 10.2178C2.5 14.3528 5.86417 17.7178 10 17.7178C14.1358 17.7178 17.5 14.3528 17.5 10.2178Z" fill="#FED269"/>
</svg>
