<svg width="24" height="24" viewBox="0 0 24 24" fill="none" xmlns="http://www.w3.org/2000/svg">
<g clip-path="url(#clip0_5406_3110)">
<path d="M21 1H3C2.20435 1 1.44129 1.31607 0.87868 1.87868C0.31607 2.44129 0 3.20435 0 4L0 23H24V4C24 3.20435 23.6839 2.44129 23.1213 1.87868C22.5587 1.31607 21.7956 1 21 1ZM20.774 4L13.639 11.135C13.1975 11.5567 12.6105 11.792 12 11.792C11.3895 11.792 10.8025 11.5567 10.361 11.135L3.226 4H20.774ZM3 20V8.017L8.239 13.256C8.73276 13.75 9.319 14.1418 9.96424 14.4092C10.6095 14.6765 11.3011 14.8141 11.9995 14.8141C12.6979 14.8141 13.3895 14.6765 14.0348 14.4092C14.68 14.1418 15.2662 13.75 15.76 13.256L21 8.017V20H3Z" fill="#FED269"/>
</g>
<defs>
<clipPath id="clip0_5406_3110">
<rect width="24" height="24" fill="white"/>
</clipPath>
</defs>
</svg>
