<svg width="30" height="30" viewBox="0 0 30 30" fill="none" xmlns="http://www.w3.org/2000/svg">
<g clip-path="url(#clip0_6206_5174)">
<path d="M8 8C8 9.933 6.433 11.5 4.5 11.5C2.567 11.5 1 9.933 1 8C1 6.067 2.567 4.5 4.5 4.5C6.433 4.5 8 6.067 8 8Z" stroke="#FED269" stroke-width="2" stroke-linecap="round" stroke-linejoin="round"/>
<path d="M13.25 23.75C13.25 26.6495 10.8995 29 8 29C5.10051 29 2.75 26.6495 2.75 23.75C2.75 20.8505 5.10051 18.5 8 18.5C10.8995 18.5 13.25 20.8505 13.25 23.75Z" stroke="#FED269" stroke-width="2" stroke-linecap="round" stroke-linejoin="round"/>
<path d="M29 8C29 11.866 25.866 15 22 15C18.134 15 15 11.866 15 8C15 4.13401 18.134 1 22 1C25.866 1 29 4.13401 29 8Z" stroke="#FED269" stroke-width="2" stroke-linecap="round" stroke-linejoin="round"/>
</g>
<defs>
<clipPath id="clip0_6206_5174">
<rect width="30" height="30" fill="white"/>
</clipPath>
</defs>
</svg>
