<svg width="30" height="30" viewBox="0 0 30 30" fill="none" xmlns="http://www.w3.org/2000/svg">
<path d="M13.9725 23.2263C13.49 22.9046 12.8381 23.035 12.5164 23.5175C12.1948 24 12.3251 24.6519 12.8076 24.9736C14.432 26.0565 16.5482 26.0565 18.1725 24.9736C18.655 24.6519 18.7854 24 18.4637 23.5175C18.1421 23.035 17.4901 22.9046 17.0076 23.2263C16.0887 23.8389 14.8915 23.8389 13.9725 23.2263Z" fill="#FED269"/>
<path d="M13.3901 18.5C13.3901 19.6598 12.4499 20.6 11.2901 20.6C10.1303 20.6 9.19014 19.6598 9.19014 18.5C9.19014 17.3402 10.1303 16.4 11.2901 16.4C12.4499 16.4 13.3901 17.3402 13.3901 18.5Z" fill="#FED269"/>
<path fill-rule="evenodd" clip-rule="evenodd" d="M14.8696 1C14.8512 1 14.8328 1.00048 14.8144 1.00145C14.5583 1.01493 14.2889 1.02673 14.0084 1.03901C11.966 1.12843 9.33947 1.24343 7.02356 2.21991C5.67398 2.78895 4.40239 3.65619 3.3746 4.98367C2.34887 6.30849 1.60637 8.03942 1.23373 10.2775C1.23261 10.2843 1.2279 10.3011 1.22055 10.3273C1.17534 10.4887 1.03038 11.0061 1.00562 11.7264C0.975511 12.6027 1.0601 14.0727 1.41101 16.8802C1.52432 17.7868 1.67915 18.5319 1.89844 19.0969C2.09916 19.614 2.45933 20.254 3.16287 20.4846C3.67389 20.652 4.13641 20.5338 4.49963 20.3461C5.05652 23.0074 6.25693 25.0336 7.86521 26.4604C9.86398 28.2338 12.4009 29 14.8696 29C17.3716 29 20.4258 28.0385 22.8649 25.8429C24.6743 24.214 26.1176 21.9306 26.7589 18.9232C27.0107 19.1545 27.3663 19.2537 27.7121 19.1716C28.1654 19.0639 28.4934 18.6704 28.5179 18.2052C28.8772 11.3795 27.2703 7.00563 24.5233 4.35667C21.7945 1.72535 18.1486 1 14.8696 1ZM9.25889 24.8896C7.81122 23.6052 6.68356 21.6019 6.35348 18.647C6.87897 18.2735 7.42107 17.9176 7.96356 17.564L8.10525 17.4716C8.7537 17.0492 9.40827 16.6227 9.98711 16.1932C10.741 15.6337 11.5414 14.9493 12.0101 14.0937C14.573 15.4541 16.4422 16.192 18.3936 16.5089C18.5452 16.5335 18.697 16.5555 18.8493 16.5751C18.1081 16.8993 17.5901 17.6392 17.5901 18.5C17.5901 19.6598 18.5303 20.6 19.6901 20.6C20.8499 20.6 21.7901 19.6598 21.7901 18.5C21.7901 17.7375 21.3837 17.0699 20.7757 16.702C22.0153 16.7167 23.3667 16.6246 24.9806 16.4936C24.7289 20.1355 23.2788 22.6447 21.4599 24.2821C19.4277 26.1115 16.882 26.9 14.8696 26.9C12.8238 26.9 10.8106 26.2662 9.25889 24.8896ZM23.0656 5.86833C24.7633 7.50544 26.0818 10.1376 26.3964 14.3522C26.2643 14.309 26.1236 14.2918 25.9821 14.3036C22.5812 14.587 20.6237 14.7436 18.7303 14.4361C16.8673 14.1335 15.0018 13.3668 11.8795 11.6321C11.5543 11.4515 11.1577 11.4564 10.8371 11.645C10.5164 11.8337 10.3196 12.178 10.3196 12.55C10.3196 13.0265 9.93273 13.6185 8.73566 14.5068C8.21052 14.8965 7.60761 15.2894 6.94252 15.7228L6.81671 15.8048C6.11341 16.2633 5.35425 16.7617 4.62322 17.31C4.53961 17.3727 4.46583 17.4475 4.40433 17.532C4.17289 17.85 3.97887 18.082 3.82145 18.2422C3.70581 17.9077 3.59062 17.3865 3.49479 16.6198C3.14577 13.8273 3.08037 12.4973 3.10439 11.7986C3.11958 11.3564 3.14974 11.256 3.19487 11.1059C3.22498 11.0057 3.26176 10.8834 3.30521 10.6224C3.63187 8.66048 4.25988 7.27052 5.03508 6.26928C5.80823 5.2707 6.768 4.6067 7.83945 4.15494C9.7809 3.33634 11.9983 3.23465 14.0771 3.13931C14.3531 3.12666 14.6266 3.11411 14.8967 3.10002C17.9084 3.10405 20.9009 3.78092 23.0656 5.86833Z" fill="#FED269"/>
</svg>
