<svg width="31" height="30" viewBox="0 0 31 30" fill="none" xmlns="http://www.w3.org/2000/svg">
<g clip-path="url(#clip0_10333_3243)">
<path fill-rule="evenodd" clip-rule="evenodd" d="M22.7283 13.4117C23.8595 12.6336 23.9108 10.9023 22.6481 10.17C21.0868 9.26463 19.5722 9.3132 18.3564 9.73724C17.552 10.0178 17.023 10.6493 16.8251 11.3569L7.40875 11.3569C7.05423 11.3569 6.76683 11.6443 6.76683 11.9988C6.76683 12.3533 7.05423 12.6407 7.40875 12.6407L16.8337 12.6407C16.9886 13.1522 17.3324 13.6176 17.876 13.9246C18.4881 14.2704 19.2233 14.4825 20.06 14.4282C20.8948 14.3741 21.7893 14.0576 22.7283 13.4117ZM22.004 11.2807C22.377 11.4969 22.4272 12.0606 22.0006 12.354C21.2154 12.8942 20.5395 13.1106 19.9769 13.1471C19.4163 13.1834 18.9272 13.0439 18.5074 12.8068C18.1715 12.6171 18.0236 12.313 18.0217 11.9949C18.0191 11.5665 18.2827 11.1227 18.7793 10.9495C19.694 10.6304 20.8117 10.5892 22.004 11.2807Z" fill="#FED269" stroke="#FED269" stroke-width="0.6" stroke-linecap="round"/>
<path d="M7.53646 21.1606C7.18193 21.1606 6.89453 21.448 6.89453 21.8025C6.89453 22.1571 7.18193 22.4445 7.53646 22.4445L10.9601 22.4445C12.26 22.4445 13.3138 21.3907 13.3138 20.0907L13.3138 19.8768L22.9427 19.8768C23.2972 19.8768 23.5846 19.5894 23.5846 19.2348C23.5846 18.8803 23.2972 18.5929 22.9427 18.5929L13.3138 18.5929L13.3138 18.3789C13.3138 17.079 12.26 16.0252 10.9601 16.0252L7.53646 16.0252C7.18193 16.0252 6.89453 16.3126 6.89453 16.6671C6.89453 17.0217 7.18193 17.3091 7.53646 17.3091L10.9601 17.3091C11.5509 17.3091 12.0299 17.7881 12.0299 18.3789L12.0299 18.5929L7.53646 18.5929C7.18193 18.5929 6.89453 18.8803 6.89453 19.2348C6.89453 19.5894 7.18193 19.8768 7.53646 19.8768L12.0299 19.8768L12.0299 20.0907C12.0299 20.6816 11.5509 21.1606 10.9601 21.1606L7.53646 21.1606Z" fill="#FED269" stroke="#FED269" stroke-width="0.6" stroke-linecap="round"/>
<path d="M4.11111 28.4444L4.11111 25.3333M25.8889 28.4444L25.8889 25.3333M9.5 2L15 6.66667M15 6.66667L19.6667 2M15 6.66667H1V25.3333H29V6.66667H15Z" stroke="#FED269" stroke-width="2.2" stroke-linecap="round" stroke-linejoin="round"/>
</g>
<defs>
<clipPath id="clip0_10333_3243">
<rect width="30" height="30" fill="white" transform="translate(0.332031)"/>
</clipPath>
</defs>
</svg>
