<svg width="31" height="30" viewBox="0 0 31 30" fill="none" xmlns="http://www.w3.org/2000/svg">
<g clip-path="url(#clip0_6202_4935)">
<path fill-rule="evenodd" clip-rule="evenodd" d="M13.5738 23.3177H8.01564C4.53299 23.3177 1.93264 21.3341 1.20108 18.7736C0.835313 17.4934 0.956578 16.1035 1.66344 14.8588C2.23607 13.8505 3.15952 12.9939 4.40905 12.3615C3.90768 9.59802 4.49832 7.17124 5.78239 5.26983C7.19763 3.17419 9.41019 1.78136 11.7631 1.24662C14.1175 0.711527 16.6879 1.02049 18.7974 2.4361C20.7307 3.73346 22.1659 5.8851 22.7243 8.89648C26.6255 9.36156 28.7815 12.5603 28.7815 15.7924C28.7815 17.5374 28.1617 19.3215 26.8564 20.7261C25.5432 22.1392 23.5984 23.1026 21.0654 23.3137C21.0339 23.3163 21.0022 23.3177 20.9705 23.3177H15.8599V28.7457C15.8599 28.8935 15.8218 29.0389 15.7492 29.1677C15.296 29.9721 14.1377 29.9721 13.6845 29.1677C13.6119 29.0389 13.5738 28.8935 13.5738 28.7457V23.3177ZM6.83397 12.7354C6.15345 10.1835 6.63152 8.09738 7.67698 6.5493C8.7384 4.97758 10.4314 3.89373 12.2697 3.47592C14.1066 3.05844 16.0133 3.32102 17.5235 4.33444C19.012 5.33333 20.2486 7.15159 20.5973 10.1153C20.665 10.691 21.1529 11.1248 21.7326 11.1248C24.8271 11.1249 26.4954 13.3829 26.4954 15.7924C26.4954 17.0004 26.0673 18.2169 25.1818 19.1698C24.3107 20.1072 22.9359 20.8542 20.9216 21.0315H16.281C16.2907 21.0116 16.3006 20.9915 16.3108 20.9712C16.7411 20.1106 17.3078 19.5074 18.1461 19.5074C18.7774 19.5074 19.2892 18.9956 19.2892 18.3643C19.2892 17.733 18.7774 17.2213 18.1461 17.2213C16.406 17.2213 15.3243 18.2647 14.6881 19.2183C14.4873 19.0331 14.2759 18.8619 14.0678 18.7063C13.2551 18.0985 12.3255 17.6053 11.7988 17.3419C11.2342 17.0596 10.5476 17.2885 10.2652 17.8531C9.9829 18.4178 10.2118 19.1044 10.7764 19.3867C11.2658 19.6314 12.0508 20.0526 12.6987 20.5371C12.9319 20.7115 13.1258 20.8784 13.2749 21.0315H8.01564C5.40175 21.0315 3.81077 19.5858 3.39927 18.1456C3.1935 17.4254 3.26277 16.6721 3.65138 15.9878C4.04179 15.3003 4.80524 14.5974 6.13085 14.1003C6.68133 13.8938 6.98545 13.3035 6.83397 12.7354Z" fill="#FED269"/>
</g>
<defs>
<clipPath id="clip0_6202_4935">
<rect width="30" height="30" fill="white" transform="translate(0.167969)"/>
</clipPath>
</defs>
</svg>
