<svg width="31" height="30" viewBox="0 0 31 30" fill="none" xmlns="http://www.w3.org/2000/svg">
<g clip-path="url(#clip0_10333_3237)">
<path d="M29.5367 19.8412L30.1405 15H2.66797V5.41625C2.66797 3.80875 3.97672 2.5 5.58422 2.5C6.49672 2.5 7.37047 2.93625 7.91797 3.66625L8.24172 4.0975L7.52422 8.21L8.86297 10.2975L16.0842 4.88125L14.7455 2.79375L10.2367 2.5925L9.91672 2.165C8.89922 0.80875 7.27922 0 5.58297 0C2.59672 0 0.167969 2.42875 0.167969 5.41625V15L0.816719 19.8412C1.13672 22.4013 2.39672 24.6425 4.22422 26.2375L3.29422 30H5.87047L6.43547 27.71C7.79172 28.3762 9.31172 28.75 10.908 28.75H19.4467C21.038 28.75 22.553 28.38 23.9055 27.7175L24.4692 30H27.0455L26.118 26.2488C27.9517 24.6538 29.218 22.4075 29.5392 19.8412H29.5367ZM10.9067 26.25C7.04672 26.25 3.77547 23.3612 3.29672 19.5312L3.04297 17.5H27.3092L27.0567 19.5312C26.5767 23.3612 23.3055 26.25 19.4455 26.25H10.9067Z" fill="#FED269"/>
</g>
<defs>
<clipPath id="clip0_10333_3237">
<rect width="30" height="30" fill="white" transform="translate(0.167969)"/>
</clipPath>
</defs>
</svg>
