<svg width="30" height="30" viewBox="0 0 30 30" fill="none" xmlns="http://www.w3.org/2000/svg">
<path d="M1.23974 10.5002L14.5451 3.81201L14.5456 3.81172C14.8309 3.66907 15.1504 3.65495 15.4282 3.81644L28.7603 10.5002H1.23974ZM1.23974 10.5002C1.23968 10.5003 1.23961 10.5003 1.23955 10.5003M1.23974 10.5002L1.23955 10.5003M1.23955 10.5003C0.831842 10.7043 0.621162 11.1647 0.72709 11.5885C0.832516 12.0102 1.23992 12.3138 1.65852 12.3138H14.024V20.8216H4.75375C4.24267 20.8216 3.77778 21.2303 3.77778 21.7975C3.77778 22.3086 4.18652 22.7735 4.75375 22.7735H7.12204V26.2447C7.12204 26.7558 7.53079 27.2207 8.09801 27.2207C8.65504 27.2207 9.07398 26.8017 9.07398 26.2447V22.7735H20.926V26.2447C20.926 26.7558 21.3348 27.2207 21.902 27.2207C22.4131 27.2207 22.878 26.8119 22.878 26.2447V22.7735H25.2463C25.7573 22.7735 26.2222 22.3648 26.2222 21.7975C26.2222 21.2865 25.8135 20.8216 25.2463 20.8216H15.976V12.3138H28.3415C28.8053 12.3138 29.1698 12.0008 29.2729 11.5885L29.273 11.5885L29.2747 11.5808C29.3763 11.1236 29.1656 10.7031 28.7605 10.5004L1.23955 10.5003ZM15 5.76762L24.2283 10.3974H5.77169L15 5.76762Z" fill="#FED269" stroke="#FED269" stroke-width="0.6"/>
</svg>
