<svg width="31" height="30" viewBox="0 0 31 30" fill="none" xmlns="http://www.w3.org/2000/svg">
<path d="M17.8 14.3C17.8 15.4598 16.8598 16.4 15.7 16.4C14.5402 16.4 13.6 15.4598 13.6 14.3C13.6 13.1402 14.5402 12.2 15.7 12.2C16.8598 12.2 17.8 13.1402 17.8 14.3Z" fill="#FED269"/>
<path fill-rule="evenodd" clip-rule="evenodd" d="M1 3.8C1 2.2536 2.2536 1 3.8 1H17.8C19.3464 1 20.6 2.2536 20.6 3.8V26.2C20.6 27.7464 19.3464 29 17.8 29H3.8C2.2536 29 1 27.7464 1 26.2V3.8ZM3.1 3.8C3.1 3.4134 3.4134 3.1 3.8 3.1H17.8C18.1866 3.1 18.5 3.4134 18.5 3.8V26.2C18.5 26.5866 18.1866 26.9 17.8 26.9H3.8C3.4134 26.9 3.1 26.5866 3.1 26.2V3.8Z" fill="#FED269"/>
</svg>
