<svg width="30" height="30" viewBox="0 0 30 30" fill="none" xmlns="http://www.w3.org/2000/svg">
<path fill-rule="evenodd" clip-rule="evenodd" d="M20.448 10.074C19.9812 9.6647 19.3097 9.67406 18.9245 9.79296C19.1769 9.48306 19.7646 9.22897 19.9378 9.19814C20.0697 9.24759 20.448 9.63635 20.448 10.074ZM21.9386 8.37912C21.6316 6.73677 17.8147 7.82495 15.8925 7.12736C15.8557 7.60613 16.4843 8.37327 17.0855 8.65721C16.0578 9.54916 15.135 11.3463 14.9489 13.5419C14.7632 11.3463 13.8405 9.54916 12.8127 8.65721C13.414 8.37327 14.0431 7.60613 14.0057 7.12736C12.0836 7.82495 8.26663 6.73677 7.95907 8.37912C7.89438 8.72668 8.0616 9.25643 8.2423 9.40869C8.27458 9.29853 8.44335 8.9382 8.9754 8.85742C11.6645 8.45111 13.9097 12.5956 11.8831 14.2713C11.8522 14.2968 11.8695 14.3438 11.9114 14.3438H17.9873C18.0286 14.3438 18.0461 14.2968 18.0157 14.2713C15.9885 12.5956 18.2337 8.45111 20.9228 8.85742C21.4553 8.9382 21.6235 9.29853 21.6559 9.40864C21.8366 9.25643 22.0038 8.72677 21.9386 8.37912ZM22.5926 4.60962C22.5444 4.45446 24.1211 4.45058 24.1211 5.43744C24.1211 6.09887 23.178 6.41214 23.178 7.0985C23.178 7.41817 23.5219 7.65267 23.6274 7.65267C23.3845 6.55069 24.3889 7.12736 24.6601 7.33346C24.1211 5.85156 25.3346 5.86091 25.2151 5.18143C25.132 4.70654 24.0773 4.85001 23.6956 4.60962C23.0183 4.18325 22.217 2.52415 21.6889 4.18325C22.6733 5.09727 22.1005 6.44249 20.8507 6.44249C20.8507 6.44249 20.8437 6.63975 20.8552 6.65542C22.3458 6.58245 22.8654 5.48693 22.5926 4.60962ZM5.20178 7.33346C5.47309 7.12736 6.4774 6.55069 6.23509 7.65267C6.34006 7.65267 6.68397 7.41817 6.68397 7.0985C6.68397 6.41214 5.7408 6.09887 5.7408 5.43744C5.7408 4.45053 7.31756 4.45446 7.26924 4.60962C6.997 5.48688 7.5167 6.5825 9.00725 6.65542C9.0182 6.63975 9.01123 6.44249 9.01123 6.44249C7.762 6.44249 7.18911 5.09718 8.17312 4.18325C7.64501 2.52415 6.84371 4.18325 6.16638 4.60962C5.78467 4.85006 4.72999 4.70654 4.64686 5.18143C4.52786 5.86091 5.7408 5.8516 5.20178 7.33346ZM9.43428 10.074C9.90159 9.66465 10.573 9.67401 10.9578 9.79292C10.7064 9.48302 10.1177 9.22892 9.94495 9.1981C9.81304 9.24754 9.43428 9.63631 9.43428 10.074ZM15.6581 0.88657L14.9309 0L14.2038 0.88657L14.931 1.81964L15.6581 0.88657ZM19.809 3.56738L19.2918 2.93729L18.7752 3.56738L19.2918 4.1832L19.809 3.56738ZM24.0032 21.7795L23.3477 21.0857L22.6922 21.7795L23.3477 22.3879L24.0032 21.7795ZM11.0872 3.56728L10.57 2.93719L10.0534 3.56728L10.57 4.18315L11.0872 3.56728ZM9.60596 6.65533H11.5346C13.1561 6.65533 13.8857 5.6601 14.1062 4.79701H15.7561C15.9766 5.66014 16.7057 6.65538 18.3278 6.65538H20.2564C20.2564 6.65538 20.5938 6.19766 20.6784 5.97103C20.983 5.15542 20.5938 4.77502 20.0259 4.77502L19.2918 5.44034L18.5577 4.77502C17.9898 4.77502 17.6006 5.15542 17.9052 5.97103C17.9441 6.07534 18.0371 6.22849 18.1252 6.36311C17.4408 6.26909 16.5673 5.80066 16.3757 4.79701C16.3757 4.79701 16.8814 3.9937 17.0083 3.66865C17.4643 2.49968 16.8819 2.02181 16.0303 2.02181L14.9309 3.31426L13.8315 2.02181C12.98 2.02181 12.3976 2.49964 12.854 3.66865C12.9805 3.99375 13.4866 4.79706 13.4866 4.79706C13.2945 5.80071 12.4211 6.26914 11.7367 6.36316C11.8253 6.22854 11.9179 6.07534 11.9567 5.97107C12.2608 5.15546 11.8726 4.77507 11.3042 4.77507L10.5701 5.44038L9.83601 4.77507C9.26766 4.77507 8.87941 5.15546 9.18356 5.97107C9.26813 6.19771 9.60596 6.65533 9.60596 6.65533ZM29.5456 12.6337C29.1732 12.8222 26.9893 13.8453 24.1917 13.4669C24.2207 13.3334 24.2453 13.1991 24.2654 13.064C26.1273 12.8413 27.6408 12.5255 28.6054 11.989C29.7048 11.377 30.1856 9.91627 29.6307 8.82944C29.6163 8.80203 29.5765 8.79717 29.5566 8.82009C29.2525 9.17017 27.3402 11.2503 24.3277 11.8969C24.3199 11.7409 24.3057 11.5852 24.2849 11.4304C25.748 10.6006 27.1765 9.64445 27.8569 8.77018C28.8852 7.44835 28.7906 5.7624 27.8121 4.90273C27.802 4.89401 27.7886 4.8901 27.7753 4.89198C27.762 4.89386 27.7502 4.90135 27.7429 4.91255C27.4334 5.42312 24.5358 10.1066 21.3544 12.1284C21.3156 12.1532 21.2764 12.1776 21.237 12.2014C21.1459 12.2567 21.1359 12.3752 21.2136 12.4457C21.5803 12.7781 21.8083 13.2407 21.8083 13.7543C21.8083 14.6471 21.12 15.3898 20.2102 15.5508C19.7478 15.6404 19.0803 15.6144 18.4393 15.4025C18.4104 15.3932 18.3806 15.4123 18.3806 15.4412V18.2693C18.3806 18.3148 18.4498 18.3261 18.4662 18.2824C18.8558 17.2501 20.0225 17.0307 20.5327 17.0307C20.7163 18.1341 21.0443 19.0482 21.4703 19.5401C22.164 20.3396 23.2969 20.3283 23.7881 19.7756C23.7962 19.7665 23.7997 19.7541 23.7976 19.7421C23.7954 19.73 23.7879 19.7197 23.7771 19.7139C23.4885 19.548 21.8371 18.5341 21.5066 16.8726C21.6371 16.8276 21.7644 16.7766 21.8864 16.7164C22.4194 17.5986 23.1953 18.3843 23.8199 18.6844C24.8691 19.1877 25.8297 18.9429 26.2557 18.2061C26.2712 18.1802 26.2523 18.1479 26.2209 18.145C25.5719 18.093 23.5801 17.5222 22.7319 16.1314C22.829 16.0423 22.9241 15.9493 23.0127 15.8504C23.9001 16.5259 25.1549 17.1232 26.0532 17.2451C27.1043 17.388 28.2953 17.0527 28.3243 15.8303C28.3247 15.8058 28.3028 15.7857 28.277 15.7873C27.9032 15.8097 25.4291 15.9175 23.6662 14.9055C23.7274 14.7891 23.7845 14.6706 23.8374 14.5501C23.8374 14.5501 26.5012 15.1797 27.7633 14.9711C29.0175 14.7641 29.7522 13.829 29.6103 12.6659C29.6063 12.6369 29.5725 12.62 29.5456 12.6337ZM6.02445 14.5503C6.07747 14.6707 6.13473 14.7893 6.19613 14.9057C4.43379 15.9171 1.96068 15.8103 1.58543 15.7874C1.55905 15.7859 1.53716 15.8069 1.53762 15.8309C1.56709 17.0528 2.75758 17.3881 3.80866 17.2452C4.7066 17.1233 5.96182 16.5261 6.84918 15.8505C6.93829 15.9494 7.03288 16.0424 7.12985 16.1315C6.28131 17.5222 4.29 18.0931 3.64096 18.145C3.60962 18.1479 3.59119 18.1802 3.60616 18.2062C4.03221 18.9429 4.99278 19.1877 6.04246 18.6844C6.66661 18.3844 7.44251 17.5986 7.97558 16.7165C8.09795 16.7767 8.22537 16.8276 8.35527 16.8727C8.02479 18.5342 6.37341 19.548 6.0847 19.7139C6.07404 19.7198 6.06662 19.7302 6.06449 19.7422C6.06237 19.7542 6.06577 19.7665 6.07376 19.7757C6.56501 20.3284 7.69833 20.3396 8.39204 19.5402C8.81818 19.0482 9.14562 18.1342 9.32927 17.0308C9.83989 17.0308 11.006 17.2501 11.3957 18.2825C11.4126 18.3261 11.4818 18.3148 11.4818 18.2693V15.4412C11.4818 15.4123 11.4515 15.3932 11.4226 15.4025C10.7816 15.6144 10.1141 15.6405 9.65227 15.5508C8.74198 15.3898 8.05365 14.6472 8.05365 13.7543C8.05365 13.2406 8.28207 12.7775 8.64838 12.4451C8.7265 12.3751 8.71606 12.2566 8.62546 12.2013C8.58567 12.1775 8.54619 12.1532 8.50702 12.1284C5.32766 10.1076 2.43149 5.42752 2.11944 4.91344C2.10494 4.88944 2.07014 4.88458 2.04871 4.90315C1.07172 5.76329 0.976672 7.44877 2.00493 8.77008C2.68531 9.64435 4.11365 10.6005 5.57647 11.4303C5.55583 11.5851 5.54172 11.7408 5.53418 11.8968C2.52406 11.2506 0.613353 9.17387 0.30626 8.82145C0.285865 8.79745 0.244982 8.80236 0.231089 8.82977C-0.322754 9.91706 0.157976 11.3769 1.25645 11.9888C2.22099 12.5254 3.73452 12.8411 5.59644 13.0639C5.61656 13.1989 5.64111 13.3333 5.67007 13.4668C2.87545 13.8447 0.6925 12.824 0.317252 12.634C0.289373 12.6199 0.255506 12.6375 0.252045 12.6669C0.110778 13.83 0.844807 14.7641 2.09905 14.9711C3.36072 15.1797 6.02445 14.5503 6.02445 14.5503ZM23.3476 23.2813L22.3771 22.5176C21.9899 22.7483 21.7052 23.1145 21.5947 23.5438C21.0109 23.6256 19.4192 23.2721 19.5739 23.0377C21.3184 20.584 19.9841 19.1232 18.3805 19.2045V20.8523C18.3805 21.3815 17.9186 21.8103 17.3497 21.8103H16.2424C15.448 21.8103 14.9309 22.6088 14.9309 22.6088C14.9309 22.6088 14.4139 21.8103 13.6195 21.8103H12.5121C11.9428 21.8103 11.4819 21.3815 11.4819 20.8523V19.2045C9.87829 19.1233 8.5429 20.5841 10.2879 23.0377C10.4412 23.2697 8.80522 23.6413 8.03779 23.5473C7.83572 23.3377 7.54401 23.2056 7.21751 23.2056C7.07871 23.2056 6.94102 23.2303 6.81087 23.2786C6.81087 23.2786 3.79533 20.4235 3.74009 20.3956L3.76497 20.3378C3.93664 20.0167 3.6739 19.6667 3.5077 19.6912C3.70075 19.4596 3.70977 18.4457 2.63867 18.2112C2.67001 18.4149 2.68591 18.8306 2.68591 18.8306C2.68591 18.8306 1.85927 18.3836 1.44416 18.7693C1.07939 19.2011 1.58557 19.9844 1.58557 19.9844C1.58557 19.9844 1.16252 19.9947 0.953985 19.977C1.26061 21.0139 2.28887 20.9405 2.51134 20.7359C2.49684 20.9008 2.86872 21.1358 3.18372 20.9473L3.32208 20.8803C3.3465 20.913 6.28346 23.6878 6.28346 23.6878C6.14855 23.888 6.08438 24.1338 6.12863 24.3957C6.19833 24.805 6.53933 25.1442 6.97483 25.2323C7.28234 25.2941 7.57152 25.2343 7.80344 25.0987L8.58088 25.8203C8.65011 25.883 8.74366 25.9221 8.84812 25.9148C9.03827 25.902 9.18061 25.7478 9.1662 25.5711C9.16021 25.4913 9.11942 25.4228 9.06315 25.3709C9.05071 25.3572 8.27131 24.6336 8.27131 24.6336C8.91426 24.1827 10.1123 23.8651 11.1067 23.8651C11.2814 23.8651 11.3635 23.7172 11.3033 23.5722C10.8528 22.4889 11.8214 21.7042 12.8232 22.343C13.2603 22.6216 13.7043 23.1704 14.0387 24.0858C12.3948 24.4839 10.3308 25.5803 9.91324 26.7774C9.75246 27.2395 10.2835 27.8695 10.9285 27.9964C10.94 27.9989 10.9519 27.9967 10.9617 27.9904C10.9715 27.984 10.9784 27.974 10.9808 27.9626C11.3178 26.1757 13.2394 24.8441 14.2393 24.6179C14.2896 24.7525 14.2731 24.709 14.3234 24.8431C13.2344 25.3581 12.1783 26.4444 11.8767 27.7358C11.7383 28.3272 12.3978 28.8603 12.9423 29.0063C12.9696 29.0136 12.9965 28.9945 12.998 28.968C13.1015 27.3349 13.8227 25.948 14.4687 25.317C14.4864 25.4403 14.4997 25.5643 14.5085 25.6885C14.5085 25.6885 13.8471 27.5317 13.8471 28.8765C13.8471 29.5021 14.7768 29.9388 14.9142 30C15.0859 29.9388 16.0151 29.5021 16.0151 28.8765C16.0151 27.5317 15.3537 25.6885 15.3537 25.6885C15.3627 25.5642 15.3761 25.4403 15.394 25.317C16.0395 25.948 16.7611 27.3344 16.8642 28.9675C16.8657 28.994 16.8931 29.0136 16.9199 29.0062C17.4649 28.8604 18.1239 28.3272 17.986 27.7359C17.6838 26.4445 16.6283 25.3582 15.5392 24.8432C15.589 24.709 15.5726 24.7526 15.6229 24.6179C16.6233 24.8441 18.5444 26.1756 18.8814 27.9625C18.8838 27.9739 18.8907 27.9839 18.9005 27.9903C18.9103 27.9966 18.9222 27.9988 18.9337 27.9963C19.5782 27.8696 20.1102 27.2395 19.9485 26.7774C19.5319 25.5804 17.4674 24.4839 15.8235 24.0859C16.1584 23.1704 16.6023 22.6216 17.0393 22.3431C18.0407 21.7042 19.0093 22.489 18.5588 23.5724C18.4986 23.7172 18.5802 23.8651 18.7554 23.8651C19.8802 23.8651 21.2658 24.2714 21.8142 24.8163C22.1647 25.3421 22.8122 25.6784 23.5428 25.6063C24.373 25.5251 25.0499 24.9014 25.1434 24.1304C25.2251 23.4548 24.8757 22.8483 24.3188 22.5178L23.3476 23.2813ZM16.1941 18.3599C16.54 18.2317 17.082 18.3355 17.0636 18.8348C17.0591 18.9478 17.2179 18.9478 17.2293 18.8323C17.3329 18.0848 16.8277 17.8693 16.2991 17.957C16.2335 17.7 16.1797 17.4753 16.1185 17.2525C16.0697 17.0724 16.0518 16.7341 16.2603 16.7341C16.3729 16.7341 16.3276 17.0489 16.3171 17.1845C16.3076 17.3034 16.3504 17.3754 16.447 17.3788C16.5073 17.3813 16.5825 17.3045 16.6272 17.2535C16.9299 16.9113 17 16.3816 16.6457 16.1261C16.3491 15.9117 15.6065 16.0713 15.4023 16.3767C15.3715 16.2617 15.2242 16.0717 15.1535 15.9889C15.0848 15.9083 15.0669 15.8529 15.162 15.782C15.2068 15.7477 15.3422 15.6131 15.3422 15.474C15.3422 15.3918 15.2784 15.24 15.0759 15.24C14.9161 15.24 14.7385 15.3507 14.7385 15.5974C14.7385 15.6522 14.7519 15.711 14.7872 15.7742C14.6862 15.7575 14.4119 15.7644 14.2711 15.7991L16.2186 21.1435C16.7761 20.8684 17.1847 20.4327 17.1847 19.9652C17.1847 19.5667 16.5978 19.6988 16.3126 20.0097C16.2211 19.5045 16.1394 19.038 16.0504 18.5729C16.026 18.4446 16.0911 18.3986 16.1941 18.3599ZM13.4403 14.7295L13.8494 15.8662C13.499 15.9495 12.9357 16.205 12.9357 16.5432C12.9357 16.9937 13.7325 17.2869 14.1934 17.2516C14.1704 17.3544 14.1969 17.446 14.2685 17.5296C14.1013 17.5296 13.7858 17.6075 13.6822 17.7191C13.4379 17.4915 13.0556 17.4087 12.8739 17.5473C12.6913 17.6868 12.6859 17.9233 12.8764 18.1906C13.0093 18.3756 13.0591 18.5582 12.9098 18.7726C13.4652 18.7726 13.2606 18.0506 13.4781 18.0506C13.4498 18.1906 13.4672 18.3526 13.5304 18.5323C13.5722 18.6517 13.5722 18.7364 13.5006 18.8514C13.3214 19.1378 13.0427 19.7958 13.0805 20.3906C12.8984 20.3896 12.8058 20.345 12.87 20.0964C12.8939 20.0037 12.8367 19.9377 12.761 20.0518C12.6774 20.1776 12.6371 20.3925 12.6371 20.4845C12.6371 21.0142 13.2681 21.1209 13.509 21.0088C14.2058 21.6831 15.5745 21.5033 16.0329 21.2771L13.623 14.6648C13.5737 14.54 13.397 14.5998 13.4403 14.7295ZM13.3567 20.1762C13.3069 19.9039 13.6856 19.4173 14.1674 18.9479C14.0649 19.2538 14.1286 19.7811 14.3297 19.9627C13.9802 19.9627 13.5651 20.0283 13.3567 20.1762Z" fill="#213B48"/>
</svg>
