<svg width="61" height="60" viewBox="0 0 61 60" fill="none" xmlns="http://www.w3.org/2000/svg">
<path d="M42.4708 13.0801L47.7771 9.12335C43.1134 5.33183 37.1645 3 30.6785 3V3.05514C23.6844 3.06931 17.2992 5.76634 12.4756 10.179L12.4509 10.1515C6.95084 15.1716 3.52729 22.3956 3.50016 30.4313C3.50006 30.4451 3.5 30.4588 3.5 30.4725C3.5 30.4816 3.5 30.4908 3.50001 30.4999C3.5 30.5091 3.5 30.5183 3.5 30.5275C3.51379 37.5998 6.18343 44.0549 10.5486 48.9287L10.5225 48.9527C15.4877 54.5122 22.6341 57.9724 30.583 57.9998L30.6234 58L30.6484 58L30.6781 58C37.6857 57.986 44.086 55.2787 48.9098 50.8511L48.9568 50.9035C54.4284 45.9185 57.9123 38.6017 57.9123 30.5275C57.9123 28.8475 57.7517 27.2226 57.4809 25.5976L51.6375 29.9859V30.5275C51.6375 36.3862 49.2695 41.6691 45.4711 45.4768L45.4222 45.4274C41.6674 49.3291 36.4667 51.6609 30.6784 51.6609H30.6642C30.4901 51.6608 30.3167 51.6585 30.1437 51.6541C29.9685 51.6473 29.7934 51.6335 29.6043 51.6058L29.6029 51.6333C24.2507 51.358 19.4442 49.0394 15.9139 45.4486L15.9349 45.4274C12.1296 41.6359 9.77024 36.3801 9.77024 30.5275C9.77024 30.5275 9.77024 30.5276 9.77024 30.5275C9.77024 30.3468 9.77253 30.1664 9.77709 29.9866C9.78397 29.8108 9.79774 29.635 9.82532 29.4443L9.79785 29.4428C10.0717 24.0733 12.3648 19.1817 15.9139 15.6063L15.935 15.6277C19.6898 11.7811 24.941 9.39418 30.6788 9.39418C31.0552 9.39418 31.3765 9.39418 31.7529 9.44926L31.7565 9.37885C35.7405 9.62349 39.4207 10.94 42.4708 13.0801Z" fill="#213B48"/>
<path d="M55.4981 19.2035C54.5893 17.2526 53.5152 15.4119 52.2299 13.7319L30.6788 29.7151L20.3325 23.1602V31.0692L30.7339 37.6791L55.4981 19.2035Z" fill="#213B48"/>
</svg>
