<svg width="60" height="60" viewBox="0 0 60 60" fill="none" xmlns="http://www.w3.org/2000/svg">
<path d="M60 35.2656H0V38.7795H60V35.2656Z" fill="#213B48"/>
<path d="M0 60H3.6767V56.0218H24.691V42.2934H0V60ZM3.66613 45.8073H21.0143V52.5185H3.66613V45.8073Z" fill="#213B48"/>
<path d="M28.2733 56.0218H42.1771V60H46.0017V56.0218H59.9795V42.2934H28.2627V56.0218H28.2733ZM46.0123 45.8073H56.324V52.5185H46.0123V45.8073ZM31.95 45.8073H42.1877V52.5185H31.95V45.8073Z" fill="#213B48"/>
<path d="M31.8329 0H17.7178V31.8044H31.8329V0ZM28.1562 28.2694H21.4156V3.52445H28.1562V28.2694Z" fill="#213B48"/>
<path d="M39.1336 10.5733L45.8742 3.52445V31.8044H49.5615V10.5733L56.3126 3.52445V31.8044H59.9999V0H54.8229L49.5615 5.47661V0H44.3845L35.4463 9.24375V31.8044H39.1336V10.5733Z" fill="#213B48"/>
<path d="M10.4279 31.8044H14.1152V28.28V0H8.93819L0 9.24375V28.28V31.8044H3.68727H10.4279ZM3.68727 10.5733L10.4279 3.51389V28.2589H3.68727V10.5733Z" fill="#213B48"/>
</svg>
