<svg width="14" height="14" viewBox="0 0 14 14" fill="none" xmlns="http://www.w3.org/2000/svg">
<g clip-path="url(#clip0_10210_2320)">
<path d="M6.99991 0.0122528C5.44323 0.0141056 3.95084 0.633357 2.85015 1.73415C1.74946 2.83495 1.13036 4.3274 1.12866 5.88409C1.12866 8.96059 5.89216 13.076 6.437 13.5357L7.00108 14.0123L7.56516 13.5357C8.10883 13.076 12.8735 8.96059 12.8735 5.88409C12.8718 4.327 12.2524 2.8342 11.1512 1.73333C10.05 0.632467 8.557 0.013488 6.99991 0.0122528ZM6.99991 11.704C5.212 10.0753 2.8775 7.42934 2.8775 5.88409C2.8775 4.79075 3.31182 3.7422 4.08492 2.9691C4.85803 2.19599 5.90658 1.76167 6.99991 1.76167C8.09325 1.76167 9.1418 2.19599 9.9149 2.9691C10.688 3.7422 11.1223 4.79075 11.1223 5.88409C11.1223 7.42642 8.78725 10.0736 6.99991 11.704Z" fill="#FED269"/>
<path d="M6.99996 7.58274C7.96549 7.58274 8.74821 6.80002 8.74821 5.83449C8.74821 4.86896 7.96549 4.08624 6.99996 4.08624C6.03443 4.08624 5.25171 4.86896 5.25171 5.83449C5.25171 6.80002 6.03443 7.58274 6.99996 7.58274Z" fill="#FED269"/>
</g>
<defs>
<clipPath id="clip0_10210_2320">
<rect width="14" height="14" fill="white"/>
</clipPath>
</defs>
</svg>
