<svg width="34" height="33" viewBox="0 0 34 33" fill="none" xmlns="http://www.w3.org/2000/svg">
<path d="M12.4121 21.7499L22.3385 11.8235" stroke="#FED269" stroke-width="2" stroke-linecap="round" stroke-linejoin="round"/>
<circle cx="22" cy="21" r="1" fill="#FED269" stroke="#FED269" stroke-width="2"/>
<circle cx="13" cy="13" r="1" fill="#FED269" stroke="#FED269" stroke-width="2"/>
<path d="M19.5004 2.22122C18.0389 1.05083 15.9611 1.05083 14.4996 2.22122L12.7987 3.58336C12.4562 3.85765 12.033 4.01169 11.5943 4.02173L9.41577 4.0716C7.54391 4.11444 5.95223 5.45002 5.585 7.28599L5.15759 9.42278C5.07152 9.85307 4.84633 10.2431 4.51673 10.5328L2.87992 11.9713C1.47354 13.2073 1.11273 15.2536 2.01156 16.8961L3.05764 18.8077C3.26829 19.1926 3.3465 19.6361 3.28021 20.0699L2.95102 22.224C2.66817 24.0749 3.70706 25.8743 5.45138 26.5548L7.48148 27.3467C7.89029 27.5062 8.23529 27.7957 8.46333 28.1706L9.59579 30.0323C10.5688 31.632 12.5213 32.3426 14.2949 31.7427L16.3591 31.0444C16.7748 30.9038 17.2252 30.9038 17.6409 31.0444L19.7051 31.7427C21.4787 32.3426 23.4312 31.632 24.4042 30.0323L25.5367 28.1706C25.7647 27.7957 26.1097 27.5062 26.5185 27.3467L28.5486 26.5548C30.2929 25.8743 31.3318 24.0749 31.049 22.224L30.7198 20.0699C30.6535 19.6361 30.7317 19.1926 30.9424 18.8077L31.9884 16.8961C32.8873 15.2536 32.5265 13.2073 31.1201 11.9713L29.4833 10.5328C29.1537 10.2431 28.9285 9.85307 28.8424 9.42279L28.415 7.28599C28.0478 5.45002 26.4561 4.11444 24.5842 4.0716L22.4057 4.02173C21.967 4.01169 21.5438 3.85765 21.2013 3.58336L19.5004 2.22122Z" stroke="#FED269" stroke-width="2"/>
</svg>
