<svg width="30" height="31" viewBox="0 0 30 31" fill="none" xmlns="http://www.w3.org/2000/svg">
<path d="M23.6344 12.2987L9.60486 3.41566C7.60739 2.15092 5 3.5861 5 5.9503V25.038C5 27.4046 7.61221 28.8394 9.60944 27.5697L23.6269 18.6588C24.1691 18.3208 24.6161 17.852 24.9261 17.2963C25.2362 16.7406 25.3992 16.116 25.4 15.4808C25.4008 14.8457 25.2392 14.2207 24.9305 13.6642C24.6217 13.1078 24.1758 12.638 23.6344 12.2987ZM22.2732 16.5425L7.52702 25.9175V5.0725L22.2821 14.415C22.464 14.5278 22.6138 14.6849 22.7175 14.8713C22.8211 15.0576 22.875 15.2671 22.8741 15.4799C22.8732 15.6927 22.8176 15.9018 22.7124 16.0873C22.6073 16.2728 22.4561 16.4286 22.2732 16.54V16.5425Z" fill="#213B48"/>
</svg>
