<svg width="6" height="10" viewBox="0 0 6 10" fill="none" xmlns="http://www.w3.org/2000/svg">
<path d="M3.14341 0.677734C1.51142 0.677734 0.251422 1.55373 0.107422 3.53373L1.61942 3.64173C1.71542 2.53773 2.27942 2.00973 3.14341 2.00973C3.80341 2.00973 4.29541 2.30973 4.29541 2.96973C4.29541 3.65373 3.69541 4.06173 3.13141 4.45773C2.35142 4.96171 2.12342 5.36971 2.12342 6.24571V6.42571H3.64741V6.30571C3.64741 5.82571 3.85141 5.62171 4.51141 5.16571C5.43541 4.51771 5.89141 3.91774 5.89141 2.94573C5.89141 1.34974 4.60741 0.677734 3.14341 0.677734ZM2.00342 9.22171H3.77941V7.40971H2.00342V9.22171Z" fill="#213B48"/>
</svg>
