<svg width="285" height="60" viewBox="0 0 285 60" fill="none" xmlns="http://www.w3.org/2000/svg">
<path d="M29.2461 16.6975L33.2283 13.676C29.7284 10.7807 25.2639 9 20.3965 9V9.04217C15.1476 9.05298 10.3558 11.1125 6.73585 14.4822L6.71734 14.4612C2.58975 18.2946 0.0205085 23.8112 0.000122227 29.9474C4.16227e-05 29.958 0 29.9685 0 29.9789C0 29.9859 3.34929e-06 29.9929 1.00463e-05 29.9999C3.35092e-06 30.0069 0 30.014 0 30.021C0.0103605 35.4216 2.01383 40.3509 5.28968 44.0728L5.27012 44.091C8.99258 48.3323 14.3487 50.9736 20.3069 50.9997C20.3231 50.9999 20.3391 51 20.3551 51C25.6301 51 30.4489 48.9307 34.0784 45.5408L34.1137 45.5807C38.2199 41.774 40.8344 36.1866 40.8344 30.0209C40.8344 28.738 40.7139 27.4971 40.5106 26.2563L36.1254 29.6073V30.0209C36.1254 34.4948 34.3483 38.529 31.4977 41.4368L31.4611 41.3991C28.6432 44.3786 24.7403 46.1592 20.3964 46.1592C20.2598 46.1592 20.1233 46.1573 19.9875 46.1537C19.8585 46.1484 19.7295 46.1379 19.5903 46.1172L19.5893 46.1381C15.5727 45.9279 11.9655 44.1573 9.31619 41.4152L9.33193 41.399C6.47621 38.5037 4.70559 34.4902 4.70558 30.021C4.70558 29.8829 4.7073 29.7451 4.71073 29.6078C4.71589 29.4736 4.72623 29.3394 4.74692 29.1937L4.72631 29.1926C4.93181 25.0923 6.6527 21.357 9.31613 18.6267L9.33201 18.643C12.1499 15.7056 16.0907 13.8829 20.3967 13.8829C20.6791 13.8829 20.9203 13.8829 21.2028 13.9249L21.2054 13.8711C24.1953 14.0579 26.9572 15.0633 29.2461 16.6975Z" fill="white"/>
<path d="M71.0451 37.1786C69.6396 37.9673 68.0688 38.3809 66.4601 38.3809C61.6718 38.3809 58.2133 34.8617 58.2133 30.0209C58.2133 25.1802 61.6718 21.6609 66.4601 21.6609C68.1894 21.6223 69.8808 22.2007 71.2862 23.2347L75.11 20.3394L74.8688 20.0905C72.6573 18.061 69.6775 17.0269 66.2982 17.0269C62.6398 17.0269 59.2984 18.3099 56.887 20.6268C54.4722 23.0279 53.1046 26.379 53.1839 29.8562C53.1425 33.3719 54.4722 36.765 56.887 39.2467C59.4189 41.6899 62.7983 43.0569 66.2603 42.9728C70.0806 42.9728 73.4186 41.6058 75.6715 39.124L72.2542 36.5161L71.0451 37.1786Z" fill="white"/>
<path fill-rule="evenodd" clip-rule="evenodd" d="M91.8865 27.2062H85.4482V21.5803H95.7481L101.301 17.36H80.1398V42.6433H91.201C97.3982 42.6433 100.977 39.7445 100.977 34.6969C100.977 29.8562 97.7599 27.2062 91.8865 27.2062ZM91.0012 38.4195H85.4482V31.4265H91.0012C94.3806 31.4265 95.9479 32.5868 95.9479 34.9458C95.9479 37.3048 94.26 38.4195 91.0012 38.4195Z" fill="white"/>
<path d="M118.962 21.5803L124.512 17.36H105.927V42.6433H124.512V38.4195H111.235V31.9663H122.582V27.746H111.235V21.5803H118.962Z" fill="white"/>
<path fill-rule="evenodd" clip-rule="evenodd" d="M129.462 17.36H139.558C146.035 17.36 150.058 20.8337 150.058 26.421C150.058 32.0084 146.035 35.4821 139.6 35.4821H134.77V42.6433H129.462V17.36ZM134.732 31.2618H139.438C142.858 31.2618 144.708 29.5232 144.708 26.421C144.708 23.3189 142.858 21.5803 139.438 21.5803H134.732V31.2618Z" fill="white"/>
<path d="M213.904 42.6819V17.402H219.213V27.7881H230.519V17.402H235.831V42.6819H230.519V32.3379H219.213V42.6819H213.904Z" fill="white"/>
<path fill-rule="evenodd" clip-rule="evenodd" d="M210.363 42.6819H204.772L202.761 37.5923H191.496L189.364 42.6819H184.014L194.593 17.402H199.984L210.363 42.6819ZM197.208 23.2348L193.105 33.3719H201.069L197.208 23.2348Z" fill="white"/>
<path d="M251.036 32.4641H247.739V42.6433H242.427V17.36H247.739V28.2017H250.674L258.559 17.36H264.632L255.139 29.5652L266 42.6433H259.162L251.036 32.4641Z" fill="white"/>
<path fill-rule="evenodd" clip-rule="evenodd" d="M166.473 21.6223V27.2483H172.908C178.785 27.2483 182.002 29.8982 182.002 34.739C182.002 39.7866 178.42 42.6819 172.226 42.6819H161.161V17.402H180.352V21.6223H166.473ZM166.473 31.4686V38.5036H172.026C175.323 38.5036 176.973 37.3469 176.973 34.9879C176.973 32.6288 175.402 31.4686 172.026 31.4686H166.473Z" fill="white"/>
<path d="M36.57 17.1952C37.5345 18.4781 38.3406 19.8837 39.0227 21.3735L20.4381 35.4821L12.6322 30.4346V24.395L20.3967 29.4005L36.57 17.1952Z" fill="white"/>
</svg>
