<svg width="30" height="30" viewBox="0 0 30 30" fill="none" xmlns="http://www.w3.org/2000/svg">
<g clip-path="url(#clip0_10210_738)">
<path d="M27.5 21.6725V8.3275C28.9762 7.62375 30 6.11625 30 4.375C30 1.9625 28.0375 0 25.625 0C23.8837 0 22.3762 1.02375 21.6725 2.5H8.3275C7.62375 1.02375 6.11625 0 4.375 0C1.9625 0 0 1.9625 0 4.375C0 6.11625 1.02375 7.62375 2.5 8.3275V21.6738C1.02375 22.3775 0 23.885 0 25.6263C0 28.0388 1.9625 30.0013 4.375 30.0013C6.11625 30.0013 7.62375 28.9775 8.3275 27.5013H21.6738C22.3775 28.9775 23.885 30.0013 25.6262 30.0013C28.0387 30.0013 30.0012 28.0388 30.0012 25.6263C30.0012 23.885 28.9775 22.3775 27.5012 21.6738L27.5 21.6725ZM21.295 25H8.705C8.43 23.0875 6.9125 21.57 5 21.295V8.705C6.9125 8.43 8.43 6.9125 8.705 5H21.295C21.57 6.9125 23.0875 8.43 25 8.705V21.295C23.0875 21.57 21.57 23.0875 21.295 25ZM25.625 2.5C26.6588 2.5 27.5 3.34125 27.5 4.375C27.5 5.40875 26.6588 6.25 25.625 6.25C24.5912 6.25 23.75 5.40875 23.75 4.375C23.75 3.34125 24.5912 2.5 25.625 2.5ZM4.375 2.5C5.40875 2.5 6.25 3.34125 6.25 4.375C6.25 5.40875 5.40875 6.25 4.375 6.25C3.34125 6.25 2.5 5.40875 2.5 4.375C2.5 3.34125 3.34125 2.5 4.375 2.5ZM4.375 27.5C3.34125 27.5 2.5 26.6588 2.5 25.625C2.5 24.5913 3.34125 23.75 4.375 23.75C5.40875 23.75 6.25 24.5913 6.25 25.625C6.25 26.6588 5.40875 27.5 4.375 27.5ZM25.625 27.5C24.5912 27.5 23.75 26.6588 23.75 25.625C23.75 24.5913 24.5912 23.75 25.625 23.75C26.6588 23.75 27.5 24.5913 27.5 25.625C27.5 26.6588 26.6588 27.5 25.625 27.5Z" fill="#FED269"/>
</g>
<defs>
<clipPath id="clip0_10210_738">
<rect width="30" height="30" fill="white"/>
</clipPath>
</defs>
</svg>
