<svg width="24" height="24" viewBox="0 0 24 24" fill="none" xmlns="http://www.w3.org/2000/svg">
<g clip-path="url(#clip0_5406_3105)">
<path d="M22.24 3.73984L18.59 0.0898438L11.95 6.72984L14.91 9.68984C13.75 12.0998 12.03 13.8198 9.69997 14.9198L6.72997 11.9498L0.0899658 18.5898L3.72997 22.2298C4.86997 23.3698 6.39997 23.9998 8.04997 23.9998C15.2 23.9998 23.99 15.2098 23.99 8.05984C23.99 6.40984 23.36 4.86984 22.23 3.73984H22.24ZM8.05997 20.9998C7.20997 20.9998 6.42997 20.6898 5.85997 20.1098L4.33997 18.5898L6.73997 16.1898L8.98997 18.4398L9.89997 18.0898C13.75 16.6198 16.51 13.8698 18.09 9.90984L18.46 8.98984L16.19 6.71984L18.59 4.31984L20.12 5.83984C20.69 6.40984 21 7.18984 21 8.03984C21 13.9198 13.05 20.9798 8.05997 20.9798V20.9998Z" fill="#FED269"/>
</g>
<defs>
<clipPath id="clip0_5406_3105">
<rect width="24" height="24" fill="white"/>
</clipPath>
</defs>
</svg>
