<svg width="23" height="22" viewBox="0 0 23 22" fill="none" xmlns="http://www.w3.org/2000/svg">
<g clip-path="url(#clip0_5406_3204)">
<path d="M11.2646 17.2234H12.5792C12.5792 17.2234 12.9766 17.1794 13.1787 16.9608C13.3658 16.76 13.3589 16.3832 13.3589 16.3832C13.3589 16.3832 13.3328 14.619 14.1523 14.3591C14.9595 14.1033 15.9963 16.0642 17.095 16.8191C17.9256 17.3898 18.5568 17.2647 18.5568 17.2647L21.4954 17.2234C21.4954 17.2234 23.0327 17.1285 22.3039 15.9198C22.2448 15.8208 21.879 15.026 20.1189 13.3924C18.2763 11.6818 18.5238 11.9595 20.7432 9.00169C22.0949 7.20031 22.6353 6.10023 22.4662 5.62994C22.3053 5.18166 21.3111 5.29992 21.3111 5.29992L18.0054 5.31917C18.0054 5.31917 17.7606 5.28617 17.5777 5.3948C17.4003 5.50206 17.2862 5.74958 17.2862 5.74958C17.2862 5.74958 16.7623 7.14393 16.0637 8.32927C14.591 10.8306 14.0011 10.9626 13.7604 10.8072C13.2008 10.4455 13.341 9.35234 13.341 8.57679C13.341 6.15248 13.7082 5.14178 12.6246 4.88051C12.2643 4.79388 12.0003 4.73613 11.0803 4.7265C9.9005 4.71412 8.90081 4.73062 8.33564 5.00702C7.95886 5.19128 7.66871 5.60244 7.8461 5.62582C8.06474 5.65469 8.55978 5.7592 8.82242 6.11673C9.16208 6.57739 9.1497 7.61421 9.1497 7.61421C9.1497 7.61421 9.34496 10.4676 8.69454 10.8223C8.24763 11.0657 7.63571 10.5693 6.32249 8.29901C5.65006 7.13705 5.14128 5.85133 5.14128 5.85133C5.14128 5.85133 5.04364 5.61207 4.86901 5.48418C4.65724 5.32879 4.36022 5.27929 4.36022 5.27929L1.21674 5.29854C1.21674 5.29854 0.745075 5.31229 0.571812 5.51718C0.417801 5.70007 0.559436 6.07685 0.559436 6.07685C0.559436 6.07685 3.02087 11.8344 5.80683 14.7372C8.36314 17.3981 11.2646 17.2234 11.2646 17.2234Z" fill="#FED269"/>
</g>
<defs>
<clipPath id="clip0_5406_3204">
<rect width="22" height="22" fill="white" transform="translate(0.5)"/>
</clipPath>
</defs>
</svg>
