<svg width="50" height="50" viewBox="0 0 50 50" fill="none" xmlns="http://www.w3.org/2000/svg">
<circle cx="25" cy="25" r="24.4" fill="white" fill-opacity="0.1" stroke="#8F8F8F" stroke-width="1.2"/>
<g clip-path="url(#clip0_3249_2287)">
<path d="M25 20H22.5V22.5H20V25H22.5V27.5H25V25H27.5V22.5H25V20Z" fill="#8F8F8F"/>
<path d="M30.7669 29.0036C33.6616 25.1351 32.8722 19.6525 29.0038 16.7578C25.1354 13.8632 19.6528 14.6525 16.7581 18.521C13.8634 22.3894 14.6528 27.872 18.5212 30.7667C21.6286 33.0919 25.8965 33.0919 29.0038 30.7667L33.2372 35.0001L35.0004 33.2403L30.7669 29.0036ZM23.7941 30.0196C20.3558 30.0196 17.5685 27.2322 17.5685 23.7939C17.5685 20.3556 20.3558 17.5682 23.7941 17.5682C27.2325 17.5682 30.0198 20.3556 30.0198 23.7939C30.0166 27.2309 27.2312 30.0164 23.7941 30.0196Z" fill="#8F8F8F"/>
</g>
<defs>
<clipPath id="clip0_3249_2287">
<rect width="20" height="20" fill="white" transform="translate(15 15)"/>
</clipPath>
</defs>
</svg>
