<svg width="159" height="26" viewBox="0 0 159 26" fill="none" xmlns="http://www.w3.org/2000/svg">
<path d="M17.9563 5.13069L20.3266 3.33216C18.2433 1.60875 15.5859 0.548828 12.6886 0.548828V0.573927C9.56429 0.580364 6.71204 1.80628 4.55728 3.81201L4.54627 3.79954C2.08937 6.08135 0.560059 9.36499 0.547924 13.0175C0.547876 13.0238 0.547852 13.03 0.547852 13.0363C0.547852 13.0404 0.547854 13.0446 0.547858 13.0488C0.547854 13.053 0.547852 13.0571 0.547852 13.0613C0.554019 16.276 1.74656 19.2101 3.69647 21.4255L3.68483 21.4364C5.90058 23.9609 9.08877 25.5331 12.6353 25.5486C12.6449 25.5488 12.6545 25.5488 12.664 25.5488C15.8039 25.5488 18.6722 24.3171 20.8326 22.2993L20.8536 22.3231C23.2978 20.0572 24.8541 16.7314 24.8541 13.0613C24.8541 12.2976 24.7823 11.559 24.6613 10.8204L22.0511 12.8151V13.0613C22.0511 15.7243 20.9933 18.1256 19.2965 19.8564L19.2747 19.834C17.5974 21.6075 15.2742 22.6674 12.6886 22.6674C12.6072 22.6674 12.526 22.6663 12.4452 22.6642C12.3684 22.661 12.2916 22.6547 12.2088 22.6424L12.2081 22.6548C9.8173 22.5297 7.67019 21.4758 6.0932 19.8436L6.10257 19.834C4.40274 18.1105 3.3488 15.7216 3.34879 13.0613C3.34879 12.9791 3.34982 12.8971 3.35186 12.8154C3.35493 12.7355 3.36108 12.6556 3.3734 12.5689L3.36113 12.5683C3.48345 10.1276 4.50779 7.90417 6.09317 6.27898L6.10262 6.28871C7.77991 4.54026 10.1256 3.4553 12.6887 3.4553C12.8569 3.4553 13.0004 3.4553 13.1685 3.48034L13.1701 3.4483C14.9498 3.5595 16.5938 4.15793 17.9563 5.13069Z" fill="white"/>
<path d="M42.8366 17.3218C42 17.7913 41.065 18.0375 40.1074 18.0375C37.2573 18.0375 35.1986 15.9427 35.1986 13.0613C35.1986 10.1799 37.2573 8.08507 40.1074 8.08507C41.1368 8.06212 42.1435 8.40639 42.9801 9.02189L45.2562 7.29848L45.1126 7.15034C43.7962 5.94228 42.0226 5.32677 40.0111 5.32677C37.8335 5.32677 35.8445 6.09042 34.4092 7.46957C32.9718 8.89879 32.1578 10.8934 32.2049 12.9632C32.1803 15.0559 32.9718 17.0756 34.4092 18.5528C35.9163 20.0071 37.9278 20.8208 39.9885 20.7707C42.2625 20.7707 44.2494 19.957 45.5904 18.4798L43.5563 16.9275L42.8366 17.3218Z" fill="white"/>
<path fill-rule="evenodd" clip-rule="evenodd" d="M55.2422 11.3859H51.4099V8.03709H57.5408L60.8461 5.52499H48.2501V20.5746H54.8342C58.523 20.5746 60.6534 18.8491 60.6534 15.8446C60.6534 12.9632 58.7383 11.3859 55.2422 11.3859ZM54.7152 18.0604H51.4099V13.898H54.7152C56.7268 13.898 57.6597 14.5886 57.6597 15.9928C57.6597 17.3969 56.655 18.0604 54.7152 18.0604Z" fill="white"/>
<path d="M71.3586 8.03709L74.6618 5.52499H63.5996V20.5746H74.6618V18.0604H66.7593V14.2193H73.5136V11.7072H66.7593V8.03709H71.3586Z" fill="white"/>
<path fill-rule="evenodd" clip-rule="evenodd" d="M77.6084 5.52499H83.6183C87.4732 5.52499 89.8681 7.59268 89.8681 10.9185C89.8681 14.2443 87.4732 16.312 83.6429 16.312H80.7681V20.5746H77.6084V5.52499ZM80.7456 13.7999H83.5465C85.5826 13.7999 86.6837 12.765 86.6837 10.9185C86.6837 9.07198 85.5826 8.03709 83.5465 8.03709H80.7456V13.7999Z" fill="white"/>
<path d="M127.872 20.5976V5.55003H131.032V11.7322H137.761V5.55003H140.923V20.5976H137.761V14.4404H131.032V20.5976H127.872Z" fill="white"/>
<path fill-rule="evenodd" clip-rule="evenodd" d="M125.764 20.5976H122.436L121.239 17.568H114.534L113.264 20.5976H110.08L116.377 5.55003H119.586L125.764 20.5976ZM117.933 9.0219L115.491 15.0559H120.232L117.933 9.0219Z" fill="white"/>
<path d="M149.974 14.5155H148.012V20.5746H144.85V5.52499H148.012V11.9784H149.759L154.452 5.52499H158.067L152.416 12.79L158.881 20.5746H154.811L149.974 14.5155Z" fill="white"/>
<path fill-rule="evenodd" clip-rule="evenodd" d="M99.639 8.06213V11.4109H103.469C106.967 11.4109 108.883 12.9883 108.883 15.8697C108.883 18.8742 106.75 20.5976 103.063 20.5976H96.4772V5.55003H107.9V8.06213H99.639ZM99.639 13.923V18.1105H102.944C104.907 18.1105 105.889 17.422 105.889 16.0178C105.889 14.6136 104.954 13.923 102.944 13.923H99.639Z" fill="white"/>
<path d="M22.3157 5.42693C22.8898 6.19058 23.3696 7.02725 23.7756 7.91399L12.7134 16.312L8.067 13.3075V9.71252L12.6888 12.692L22.3157 5.42693Z" fill="white"/>
</svg>
