<svg width="126" height="26" viewBox="0 0 126 26" fill="none" xmlns="http://www.w3.org/2000/svg">
<path d="M0.881348 22.1411H17.3093V25.5488H0.881348V22.1411ZM119.684 11.2017L124.864 5.48701H121.003L116.759 10.2367V5.48701H113.683V17.497H116.774V12.4382L121.313 17.497H125.278L119.684 11.2017ZM19.1187 11.9933C19.0357 14.2551 18.7493 14.6848 17.4978 14.6848V17.5045H17.9652C21.109 17.5045 21.8554 15.8836 21.9685 12.2723L22.1042 8.27651H25.0068V17.497H28.0828V5.48701H19.3298L19.1187 11.9933ZM5.76675 14.0591H12.2505L13.3286 17.497H16.9248L12.0771 3.05184C11.6096 1.65709 11.0668 0.548828 9.21217 0.548828C7.35752 0.548828 6.79208 1.65709 6.2945 3.05184L1.21307 17.497H4.59064L5.76675 14.0591ZM9.05384 4.31843H9.13678L11.3081 11.164H6.73931L9.05384 4.31843ZM80.91 7.19087H77.4797V3.79822H85.4411V0.782544H74.2529V17.497H80.91C84.5967 17.497 86.7152 15.6574 86.7152 12.2949C86.7152 9.10582 84.5665 7.19087 80.91 7.19087ZM80.7517 14.4737H77.4797V10.1312H80.7517C82.4555 10.1312 83.413 10.8851 83.413 12.3024C83.413 13.7198 82.4555 14.4737 80.7517 14.4737ZM50.331 5.20806V0.759926H47.2625V5.20806C45.6513 5.26121 44.127 5.95165 43.0244 7.12769C41.9219 8.3038 41.3311 9.8694 41.382 11.4807C41.3271 13.0953 41.9157 14.6655 43.0186 15.8461C44.1213 17.0267 45.6479 17.7209 47.2625 17.7759V22.2994H50.3385V17.7759C51.1383 17.7496 51.9251 17.5659 52.6537 17.235C53.3823 16.9043 54.0385 16.433 54.5848 15.8483C55.131 15.2635 55.5566 14.5767 55.837 13.8273C56.1175 13.0778 56.2473 12.2804 56.2191 11.4807C56.2514 10.6805 56.1239 9.88183 55.8443 9.13146C55.5646 8.38101 55.1382 7.69381 54.5901 7.1099C54.042 6.52606 53.3831 6.05712 52.6519 5.7306C51.9206 5.40408 51.1316 5.22645 50.331 5.20806ZM47.2701 14.8733C46.456 14.7839 45.7097 14.3781 45.1921 13.7434C44.6745 13.1088 44.427 12.2961 44.5032 11.4807C44.4368 10.6673 44.6878 9.85975 45.2036 9.22736C45.7194 8.59489 46.46 8.18664 47.2701 8.08803V14.8733ZM50.3461 14.8733V8.08803C51.1562 8.18664 51.8967 8.59489 52.4125 9.22736C52.9283 9.85975 53.1793 10.6673 53.1129 11.4807C53.1851 12.2953 52.9362 13.1058 52.4193 13.7396C51.9025 14.3734 51.1586 14.7802 50.3461 14.8733ZM67.7465 13.8103V9.76173C67.7465 6.80637 65.8693 4.95926 62.7179 4.95926C59.5665 4.95926 57.7269 6.91946 57.5762 8.96258H60.6899C60.7954 8.52531 61.2628 7.74877 62.7104 7.74877C62.981 7.71394 63.2554 7.74244 63.5125 7.83215C63.7704 7.92187 64.0033 8.07016 64.1933 8.2655C64.3833 8.46077 64.5258 8.69765 64.6087 8.9573C64.6917 9.21703 64.7128 9.49243 64.6706 9.76173H61.6549C58.9257 9.76173 57.3047 11.2017 57.3047 13.5841C57.2835 14.1526 57.3818 14.7193 57.5933 15.2474C57.805 15.7755 58.1251 16.2533 58.533 16.6499C58.9409 17.0464 59.4276 17.3529 59.9615 17.5495C60.4953 17.7461 61.0646 17.8283 61.6323 17.791C62.2732 17.8247 62.9124 17.6999 63.4937 17.4277C64.075 17.1555 64.5801 16.7443 64.9646 16.2304C65.2149 16.6537 65.5798 16.9973 66.0178 17.2215C66.4551 17.4457 66.9474 17.5412 67.4374 17.497H68.5005V14.7225C67.9803 14.7225 67.7465 14.4737 67.7465 13.8103ZM64.6706 13.0564C64.6834 13.3533 64.6329 13.6496 64.522 13.9256C64.412 14.2016 64.2446 14.4512 64.0312 14.6578C63.8171 14.8643 63.5623 15.0233 63.2826 15.1241C63.0029 15.2249 62.7051 15.2654 62.4088 15.2427C61.3005 15.2427 60.426 14.8432 60.426 13.6444C60.426 12.4457 61.3985 12.2723 62.2203 12.2723H64.6706V13.0564ZM35.7426 9.13598H33.5336V5.48701H30.4576V17.497H35.7954C39.1353 17.497 40.3189 15.3257 40.3189 13.275C40.334 10.6287 38.6754 9.13598 35.7426 9.13598ZM35.5164 14.8733H33.5336V11.8576H35.5164C36.5795 11.8576 37.2203 12.3401 37.2203 13.3655C37.2203 14.3908 36.6096 14.8733 35.5164 14.8733ZM98.4537 13.8103V9.76173C98.4537 6.80637 96.5765 4.95926 93.4251 4.95926C90.2737 4.95926 88.4341 6.91946 88.2833 8.96258H91.397C91.5026 8.52531 91.97 7.74877 93.4175 7.74877C93.6882 7.71394 93.9626 7.74244 94.2197 7.83215C94.4775 7.92187 94.7105 8.07016 94.9005 8.2655C95.0905 8.46077 95.233 8.69765 95.3159 8.9573C95.3988 9.21703 95.4199 9.49243 95.3777 9.76173H92.362C89.6329 9.76173 88.0119 11.2017 88.0119 13.5841C87.9908 14.1526 88.0888 14.7193 88.3007 15.2474C88.5118 15.7755 88.8322 16.2533 89.2401 16.6499C89.6479 17.0464 90.135 17.3529 90.6687 17.5495C91.2025 17.7461 91.7717 17.8283 92.3394 17.791C92.9863 17.831 93.6332 17.7093 94.222 17.4369C94.81 17.1645 95.3212 16.7498 95.7094 16.2304C95.956 16.6463 96.3141 16.9852 96.7431 17.209C97.1721 17.4327 97.6546 17.5325 98.1371 17.497H99.2001V14.7225C98.6648 14.7225 98.4537 14.4737 98.4537 13.8103ZM95.3928 13.0564C95.4041 13.353 95.3529 13.6487 95.242 13.9242C95.1312 14.1997 94.9638 14.4487 94.7505 14.6551C94.5371 14.8613 94.2823 15.0203 94.0033 15.1217C93.7244 15.2229 93.4273 15.2641 93.131 15.2427C92.0228 15.2427 91.1482 14.8432 91.1482 13.6444C91.1482 12.4457 92.1208 12.2723 92.9426 12.2723H95.3928V13.0564ZM108.277 9.95775H104.033V5.48701H100.957V17.5045H104.033V12.7699H108.277V17.497H111.353V5.48701H108.277V9.95775Z" fill="white"/>
</svg>
