<svg width="71" height="26" viewBox="0 0 71 26" fill="none" xmlns="http://www.w3.org/2000/svg">
<path d="M5.12086 0.548828L3.90893 3.87318H20.6977L21.9096 0.548828H5.12086ZM3.30367 5.53394L2.09174 8.85759H18.8805L20.0924 5.53394H3.30367ZM1.49001 10.5191L0.278076 13.842H17.0668L18.2773 10.5184C18.278 10.5191 1.49001 10.5191 1.49001 10.5191Z" fill="#D2D2D2"/>
<path d="M35.5726 14.8852V14.9542C36.3265 15.2312 37.0473 15.7159 37.4243 16.0274C38.5897 16.9969 39.1048 18.2772 39.1048 19.9387C39.1048 22.6747 37.6646 24.6469 35.2978 25.2704C34.577 25.4783 33.823 25.5474 32.4173 25.5474H25.2515V5.53784H31.5958C32.8993 5.53784 33.7899 5.60689 34.5784 5.81405C36.8761 6.43763 38.3854 8.03005 38.3854 10.5568C38.3854 11.9075 37.9056 13.0504 37.1171 13.8114C36.7739 14.1573 36.2941 14.5731 35.574 14.8845L35.5726 14.8852ZM29.229 16.9969V22.2589H31.9727C32.795 22.2589 33.5504 22.1899 34.0985 21.6706C34.6474 21.1513 34.887 20.4932 34.887 19.6279C34.887 18.9712 34.7151 18.3476 34.3726 17.8974C33.7899 17.1702 33.0691 16.9969 31.8353 16.9969H29.2283H29.229ZM29.1938 13.5345H31.4231C32.1087 13.5345 32.4519 13.5345 32.7943 13.4309C33.7209 13.1533 34.3036 12.3239 34.3036 11.1811C34.3036 9.83103 33.6863 9.24198 32.7943 8.96577C32.4166 8.86149 32.0404 8.82766 31.2857 8.82766H29.1938V13.5352V13.5345ZM45.0714 25.5481V8.89601H39.3451V5.53855H55.2573L54.1257 8.89601H49.0497V25.5481H45.0714ZM56.4917 25.5481V5.53855H69.3861L68.2545 8.89601H60.4361V13.328H63.6259C66.1977 13.328 67.5351 13.9516 68.4617 14.7471C69.1825 15.3707 70.4162 16.7545 70.4162 19.4905C70.4162 22.1906 69.1479 23.6787 68.084 24.4411C66.8495 25.3057 65.5467 25.5488 62.9051 25.5488H56.4924H56.4917V25.5481ZM60.4354 22.1892H63.4188C64.5504 22.1892 65.236 21.9123 65.7158 21.2887C65.9554 20.978 66.2985 20.4227 66.2985 19.3848C66.2985 18.3469 65.9554 17.6191 65.2698 17.0998C64.859 16.7891 64.3094 16.6164 63.3835 16.6164H60.434V22.1892H60.4354Z" fill="white"/>
</svg>
