<svg width="109" height="26" viewBox="0 0 109 26" fill="none" xmlns="http://www.w3.org/2000/svg">
<path d="M61.1066 0.548828L47.6091 2.31211V6.30634L61.1066 5.10181V0.548828Z" fill="#D2D2D2"/>
<path fill-rule="evenodd" clip-rule="evenodd" d="M58.5515 9.70249L47.6091 2.31641V6.30121L51.0211 8.61232L51.6923 9.00391C50.4665 9.01866 49.8795 9.26763 49.2898 9.62369C47.605 10.6394 46.7305 12.4257 46.7305 15.0617C46.7305 19.5034 49.1822 21.6064 53.8525 21.6064C58.523 21.6064 60.9869 19.5034 60.9869 15.0617C60.9869 12.491 60.1532 10.7332 58.5515 9.70249ZM53.8525 18.3586C51.5371 18.3586 50.8085 17.5157 50.8085 15.0958C50.8085 12.6759 51.5317 11.833 53.8525 11.833C56.1735 11.833 56.8844 12.6595 56.8844 15.0958C56.8844 17.5319 56.1857 18.3586 53.8525 18.3586ZM19.8662 15.0958C19.8662 17.5198 20.5895 18.3586 22.9103 18.3586C25.231 18.3586 25.9422 17.5157 25.9422 15.0958C25.9422 12.6759 25.2419 11.833 22.9103 11.833C20.5784 11.833 19.8662 12.6595 19.8662 15.0958ZM15.7883 15.0605C15.7883 10.6189 18.2564 8.58646 22.9103 8.58646C27.5643 8.58646 30.0431 10.6189 30.0431 15.0605C30.0431 19.5019 27.5915 21.6052 22.9103 21.6052C18.2291 21.6052 15.7883 19.5019 15.7883 15.0605ZM4.32685 10.4924C4.7709 9.92947 6.56207 8.57002 8.76573 8.57002C12.4335 8.57002 14.4561 10.5468 14.4561 15.0373C14.4561 19.5276 12.4309 21.5235 8.7534 21.5235C6.53729 21.5235 4.75857 20.1884 4.30244 19.6134V25.5489H0.416504V8.86105H4.32685V10.4924ZM4.32963 15.0276C4.32963 17.449 5.05831 18.2904 7.37365 18.2904V18.2851C9.70531 18.2851 10.4041 17.4611 10.4041 15.0276C10.4041 12.5942 9.69443 11.7649 7.37365 11.7649C5.05287 11.7649 4.32963 12.6063 4.32963 15.0276ZM87.7259 8.86637V13.3977H82.5667V8.86637H78.6564V21.1292H82.5667V16.5353H87.7259V21.1292H91.6377V8.86637H87.7259ZM68.0354 21.5235C64.3552 21.5235 62.3325 19.5234 62.3325 15.0373C62.3325 10.5589 64.3538 8.57002 68.0218 8.57002C70.224 8.57002 72.0152 9.92947 72.4619 10.4842V8.85283H76.3723V21.1304H72.485V19.6134C72.0287 20.1884 70.25 21.5235 68.0354 21.5235ZM69.4151 11.7567C67.082 11.7567 66.3831 12.5833 66.3831 15.0194C66.3817 17.4434 67.0956 18.2824 69.4151 18.2824C71.7346 18.2824 72.4576 17.4531 72.4576 15.0194C72.4576 12.586 71.7483 11.7567 69.4151 11.7567ZM41.3901 16.5979C41.0849 17.88 40.2678 18.3583 38.497 18.3583C36.1817 18.3583 35.4542 17.5155 35.4542 15.0956C35.4542 12.6757 36.1817 11.8328 38.497 11.8328C40.2678 11.8328 41.0849 12.31 41.3913 13.6003L45.4693 13.2916C44.8604 10.0832 42.4728 8.59177 38.497 8.59177C33.843 8.59177 31.3765 10.6242 31.3765 15.0658C31.3765 19.5073 33.8279 21.6105 38.497 21.6105C42.47 21.6105 44.8332 20.0879 45.457 16.9107L41.3901 16.5979ZM102 14.6892L108.189 21.1278H103.162L97.771 15.4818V15.7782V16.8398V21.1278H93.9301V8.86637H97.771V14.193L103.019 8.86637H107.857L102 14.6892Z" fill="white"/>
</svg>
