<svg width="122" height="34" viewBox="0 0 122 34" fill="none" xmlns="http://www.w3.org/2000/svg">
<path d="M0 0.5H6.42574V14.9401H25.3662V19.5H0V0.5Z" fill="#213B48"/>
<path d="M68.7666 0.5L68.7738 15.2115L79.167 0.5H85.892L73.211 19.5H62.059V0.5H68.7666Z" fill="#213B48"/>
<path d="M103.059 14.9401V0.5H96.6337V19.5H122V14.9401H103.059Z" fill="#213B48"/>
<path d="M27.6488 0.5H34.0746V19.5H27.6488V0.5Z" fill="#213B48"/>
<path d="M43.454 15.2115L43.4466 0.5H36.7378V19.5H47.8911L60.5706 0.5H53.846L43.454 15.2115Z" fill="#213B48"/>
<path d="M87.3609 0.5H93.7865V19.5H87.3609V0.5Z" fill="#213B48"/>
<path d="M0 31.4873V24.5H1.05041V27.3766C1.39399 26.75 2.02227 26.3987 2.74871 26.3987C4.00525 26.3987 4.91821 27.3576 4.91821 29C4.91821 30.6424 4.00524 31.6013 2.75851 31.6013C1.97317 31.6013 1.31546 31.2025 0.971875 30.4715V31.4873H0ZM1.00131 29C1.00131 30.0823 1.55105 30.8038 2.43455 30.8038C3.32788 30.8038 3.87764 30.0823 3.87764 29C3.87764 27.9177 3.32788 27.1962 2.43455 27.1962C1.55105 27.1962 1.00131 27.9177 1.00131 29Z" fill="#FED269"/>
<path d="M9.30569 26.5127H10.4248L8.59889 31.9905C8.25531 33.1392 7.80371 33.5 6.72387 33.5C6.55699 33.5 6.34103 33.4905 6.09561 33.462V32.6835C6.29195 32.693 6.49809 32.7025 6.65516 32.7025C7.18526 32.7025 7.44051 32.5411 7.64666 31.8576L7.76446 31.4873H7.1558L5.28082 26.5127H6.40975L8.00005 31.0791L9.30569 26.5127Z" fill="#FED269"/>
<path d="M13.5689 31.4873V24.8418H14.6683V31.4873H13.5689Z" fill="#FED269"/>
<path d="M17.0279 30.6139H21.0234V31.4873H15.6732V30.7468L19.5705 25.7152H15.899V24.8418H20.9252V25.5823L17.0279 30.6139Z" fill="#FED269"/>
<path d="M25.3707 28.0791C26.5781 28.1456 27.4911 28.6582 27.4911 29.731C27.4911 30.8892 26.4603 31.4873 25.086 31.4873H22.0722V24.8418H25.0369C26.3033 24.8418 27.2948 25.3449 27.2948 26.5127C27.2948 27.462 26.6272 27.9937 25.3707 28.0791ZM23.1717 25.6677V27.7089H24.978C25.7535 27.7089 26.1953 27.3101 26.1953 26.6741C26.1953 26.038 25.7339 25.6677 24.9289 25.6677H23.1717ZM24.9878 30.6614C25.9008 30.6614 26.3916 30.2722 26.3916 29.5886C26.3916 28.9241 25.9204 28.5063 25.0467 28.5063H23.1717V30.6614H24.9878Z" fill="#FED269"/>
<path d="M28.6966 28.9525V24.8418H29.7961V28.8671C29.7961 30.1298 30.336 30.7279 31.4748 30.7279C32.6037 30.7279 33.1534 30.1298 33.1534 28.8671V24.8418H34.2529V28.9525C34.2529 30.7279 33.34 31.6013 31.4748 31.6013C29.6096 31.6013 28.6966 30.7279 28.6966 28.9525Z" fill="#FED269"/>
<path d="M41.4434 31.4873H40.1181L38.1842 28.8196H36.967V31.4873H35.8675V24.8418H38.7732C40.0298 24.8418 41.1685 25.4114 41.1685 26.8544C41.1685 28.0886 40.3635 28.6582 39.3426 28.7816L41.4434 31.4873ZM36.967 28.0222H38.6554C39.4997 28.0222 40.0691 27.6424 40.0691 26.8544C40.0691 26.0759 39.4997 25.6962 38.6554 25.6962H36.967V28.0222Z" fill="#FED269"/>
<path d="M42.0707 28.1646C42.0707 26.1614 43.1309 24.7278 45.0942 24.7278C46.6158 24.7278 47.6368 25.5443 47.8822 26.8165L46.8318 26.9114C46.6453 26.1139 45.9679 25.5918 45.0942 25.5918C43.769 25.5918 43.1702 26.8165 43.1702 28.1646C43.1702 29.6171 43.9162 30.7373 45.3985 30.7373C45.8796 30.7373 46.4784 30.6234 46.9987 30.3766V28.7816H45.1826V28.0506H48V30.9652C47.1852 31.3639 46.2821 31.6013 45.3691 31.6013C43.18 31.6013 42.0707 30.1772 42.0707 28.1646Z" fill="#FED269"/>
</svg>
