<svg width="215" height="28" viewBox="0 0 215 28" fill="none" xmlns="http://www.w3.org/2000/svg">
<path d="M0 0H8.7458V19.8009H34.5249V26.0537H0V0Z" fill="white"/>
<path d="M93.5952 0L93.6051 20.173L107.751 0H116.904L99.6443 26.0537H84.4658V0H93.5952Z" fill="white"/>
<path d="M140.27 19.8009V0H131.524V26.0537H166.049V19.8009H140.27Z" fill="white"/>
<path d="M37.6316 0H46.3775V26.0537H37.6316V0Z" fill="white"/>
<path d="M59.1434 20.173L59.1333 0H50.0023V26.0537H65.1826L82.44 0H73.2874L59.1434 20.173Z" fill="white"/>
<path d="M118.903 0H127.649V26.0537H118.903V0Z" fill="white"/>
<path d="M169.527 26.0537V19.2966H170.522V22.0784C170.848 21.4725 171.443 21.1328 172.131 21.1328C173.321 21.1328 174.186 22.06 174.186 23.6483C174.186 25.2366 173.321 26.1638 172.14 26.1638C171.396 26.1638 170.773 25.7783 170.448 25.0713V26.0537H169.527ZM170.476 23.6483C170.476 24.6949 170.996 25.3927 171.833 25.3927C172.68 25.3927 173.201 24.6949 173.201 23.6483C173.201 22.6017 172.68 21.904 171.833 21.904C170.996 21.904 170.476 22.6017 170.476 23.6483Z" fill="#FED269"/>
<path d="M178.343 21.243H179.403L177.673 26.5403C177.348 27.6511 176.92 28 175.897 28C175.739 28 175.534 27.9908 175.302 27.9633V27.2105C175.488 27.2196 175.683 27.2288 175.832 27.2288C176.334 27.2288 176.576 27.0727 176.771 26.4117L176.883 26.0537H176.306L174.53 21.243H175.599L177.106 25.6589L178.343 21.243Z" fill="#FED269"/>
<path d="M182.382 26.0537V19.6271H183.423V26.0537H182.382Z" fill="#FED269"/>
<path d="M185.659 25.209H189.444V26.0537H184.375V25.3376L188.067 20.4718H184.589V19.6271H189.351V20.3432L185.659 25.209Z" fill="#FED269"/>
<path d="M193.562 22.7578C194.706 22.8221 195.571 23.3178 195.571 24.3552C195.571 25.4753 194.594 26.0537 193.292 26.0537H190.437V19.6271H193.246C194.446 19.6271 195.385 20.1137 195.385 21.243C195.385 22.161 194.752 22.6752 193.562 22.7578ZM191.479 20.4259V22.3997H193.19C193.925 22.3997 194.343 22.0141 194.343 21.399C194.343 20.7839 193.906 20.4259 193.144 20.4259H191.479ZM193.199 25.255C194.064 25.255 194.529 24.8785 194.529 24.2175C194.529 23.5749 194.083 23.1709 193.255 23.1709H191.479V25.255H193.199Z" fill="#FED269"/>
<path d="M196.713 23.6024V19.6271H197.754V23.5198C197.754 24.7408 198.266 25.3192 199.345 25.3192C200.414 25.3192 200.935 24.7408 200.935 23.5198V19.6271H201.977V23.6024C201.977 25.3192 201.112 26.1638 199.345 26.1638C197.578 26.1638 196.713 25.3192 196.713 23.6024Z" fill="#FED269"/>
<path d="M208.789 26.0537H207.533L205.701 23.4739H204.548V26.0537H203.506V19.6271H206.259C207.449 19.6271 208.528 20.178 208.528 21.5735C208.528 22.767 207.766 23.3178 206.798 23.4372L208.789 26.0537ZM204.548 22.7027H206.147C206.947 22.7027 207.487 22.3355 207.487 21.5735C207.487 20.8206 206.947 20.4534 206.147 20.4534H204.548V22.7027Z" fill="#FED269"/>
<path d="M209.383 22.8404C209.383 20.9033 210.387 19.517 212.247 19.517C213.689 19.517 214.656 20.3065 214.888 21.5367L213.893 21.6286C213.717 20.8574 213.075 20.3524 212.247 20.3524C210.992 20.3524 210.424 21.5367 210.424 22.8404C210.424 24.2451 211.131 25.3284 212.535 25.3284C212.991 25.3284 213.559 25.2182 214.051 24.9795V23.4372H212.331V22.7302H215V25.5487C214.228 25.9343 213.372 26.1638 212.508 26.1638C210.434 26.1638 209.383 24.7867 209.383 22.8404Z" fill="#FED269"/>
</svg>
