<svg width="278" height="36" viewBox="0 0 278 36" fill="none" xmlns="http://www.w3.org/2000/svg">
<path d="M0 0H11.276V25.4583H44.513V33.4976H0V0Z" fill="#213B48"/>
<path d="M120.673 0L120.685 25.9368L138.923 0H150.725L128.472 33.4976H108.902V0H120.673Z" fill="#213B48"/>
<path d="M180.85 25.4583V0H169.574V33.4976H214.087V25.4583H180.85Z" fill="#213B48"/>
<path d="M48.5186 0H59.7946V33.4976H48.5186V0Z" fill="#213B48"/>
<path d="M76.2537 25.9368L76.2408 0H64.4681V33.4976H84.0401L106.29 0H94.4896L76.2537 25.9368Z" fill="#213B48"/>
<path d="M153.302 0H164.578V33.4976H153.302V0Z" fill="#213B48"/>
<path d="M218.572 33.4976V24.81H219.855V28.3865C220.274 27.6075 221.042 27.1707 221.929 27.1707C223.464 27.1707 224.579 28.3629 224.579 30.405C224.579 32.447 223.464 33.6392 221.941 33.6392C220.982 33.6392 220.178 33.1435 219.759 32.2346V33.4976H218.572ZM219.795 30.405C219.795 31.7506 220.466 32.6477 221.545 32.6477C222.636 32.6477 223.308 31.7506 223.308 30.405C223.308 29.0593 222.636 28.1623 221.545 28.1623C220.466 28.1623 219.795 29.0593 219.795 30.405Z" fill="#FED269"/>
<path d="M229.938 27.3124H231.305L229.075 34.1232C228.655 35.5515 228.103 36 226.784 36C226.581 36 226.317 35.9882 226.017 35.9528V34.9849C226.257 34.9967 226.509 35.0085 226.7 35.0085C227.348 35.0085 227.66 34.8078 227.911 33.9579L228.055 33.4976H227.312L225.022 27.3124H226.401L228.343 32.99L229.938 27.3124Z" fill="#FED269"/>
<path d="M235.145 33.4976V25.2349H236.488V33.4976H235.145Z" fill="#FED269"/>
<path d="M239.37 32.4116H244.25V33.4976H237.715V32.5769L242.476 26.3209H237.991V25.2349H244.13V26.1556L239.37 32.4116Z" fill="#FED269"/>
<path d="M249.56 29.26C251.035 29.3426 252.15 29.98 252.15 31.3139C252.15 32.7539 250.891 33.4976 249.212 33.4976H245.531V25.2349H249.152C250.699 25.2349 251.91 25.8605 251.91 27.3124C251.91 28.4928 251.095 29.1538 249.56 29.26ZM246.874 26.2618V28.7997H249.08C250.028 28.7997 250.567 28.3039 250.567 27.513C250.567 26.7222 250.004 26.2618 249.02 26.2618H246.874ZM249.092 32.4707C250.207 32.4707 250.807 31.9867 250.807 31.1368C250.807 30.3106 250.231 29.7912 249.164 29.7912H246.874V32.4707H249.092Z" fill="#FED269"/>
<path d="M253.622 30.346V25.2349H254.965V30.2397C254.965 31.8096 255.625 32.5533 257.016 32.5533C258.395 32.5533 259.066 31.8096 259.066 30.2397V25.2349H260.409V30.346C260.409 32.5533 259.294 33.6392 257.016 33.6392C254.738 33.6392 253.622 32.5533 253.622 30.346Z" fill="#FED269"/>
<path d="M269.192 33.4976H267.573L265.211 30.1807H263.724V33.4976H262.381V25.2349H265.93C267.465 25.2349 268.856 25.9431 268.856 27.7373C268.856 29.2718 267.873 29.98 266.626 30.1335L269.192 33.4976ZM263.724 29.1892H265.786C266.818 29.1892 267.513 28.717 267.513 27.7373C267.513 26.7694 266.818 26.2973 265.786 26.2973H263.724V29.1892Z" fill="#FED269"/>
<path d="M269.958 29.3662C269.958 26.8756 271.253 25.0933 273.651 25.0933C275.509 25.0933 276.756 26.1084 277.056 27.6901L275.773 27.8081C275.545 26.8166 274.718 26.1674 273.651 26.1674C272.032 26.1674 271.301 27.6901 271.301 29.3662C271.301 31.1722 272.212 32.5651 274.023 32.5651C274.61 32.5651 275.341 32.4234 275.977 32.1165V30.1335H273.759V29.2246H277.2V32.8484C276.205 33.3441 275.102 33.6392 273.987 33.6392C271.313 33.6392 269.958 31.8687 269.958 29.3662Z" fill="#FED269"/>
</svg>
